<svg width="320" height="302" viewBox="-60 0 320 302" fill="none" xmlns="http://www.w3.org/2000/svg">
<path d="M40.3142 0C48.8735 0 54.0157 1.7085 59.158 5.14225C72.8595 15.41 71.1509 15.41 83.144 5.14225C88.2862 1.7085 95.1369 0 103.696 0C110.564 0 117.414 1.7085 120.831 3.43375C134.533 13.7015 132.824 15.4267 144.817 6.85075C149.943 1.72525 156.81 0 165.37 0C180.796 0 199.64 15.4267 199.64 42.8298C199.64 87.368 177.363 119.913 139.675 131.906C124.248 137.048 119.106 145.608 119.106 161.035C120.815 205.573 101.988 243.26 110.547 282.656C113.981 296.358 103.679 301.5 95.1202 301.5C88.2694 301.5 83.1272 298.066 79.6935 289.507L77.9849 280.931C76.2764 267.246 71.1342 260.379 62.575 251.819L16.3114 207.281C-5.96605 185.02 -2.5323 155.892 9.44395 145.608C24.8707 133.615 43.7145 142.191 52.2737 164.451C60.8497 186.712 83.1105 202.139 84.8189 185.02C86.5275 176.444 86.5274 166.177 86.5274 155.892C84.8189 142.191 76.2429 135.323 62.5414 130.198C26.5624 116.479 6.0102 85.6595 6.0102 42.8298C6.0102 11.993 28.271 0 40.264 0H40.3142Z" fill="black"/>
</svg>
