<svg width="1112" height="648" viewBox="0 0 1112 648" fill="none" xmlns="http://www.w3.org/2000/svg">
<path d="M104.349 224.955C104.349 219.044 99.4659 214.16 93.2974 214.16C87.129 214.16 82.5027 219.044 82.5027 224.955C82.5027 230.866 87.386 235.75 93.2974 235.75C99.2088 235.75 104.349 231.123 104.349 224.955Z" fill="black"/>
<path d="M43.179 275.073C41.1229 275.073 40.0948 275.587 38.8097 277.644C38.2957 278.158 38.0387 278.158 37.7817 277.387C37.2676 275.587 35.7255 275.073 33.9264 275.073C32.1273 275.073 30.3281 275.587 29.5571 277.387C29.3001 278.158 29.043 278.158 28.786 277.387C27.5009 275.587 26.4729 275.073 24.4167 275.073C22.6176 275.073 19.2764 276.873 19.2764 281.499C19.2764 288.695 22.8746 293.579 29.8141 295.121C30.5851 295.378 30.8422 295.635 31.0992 296.406C31.6132 299.49 31.3562 302.317 30.8422 305.402C30.5852 306.687 29.8141 306.43 29.3001 305.402L27.2439 299.747C25.7018 296.149 23.1316 295.121 21.0755 296.406C19.2764 297.948 18.7623 302.831 21.5895 305.659L29.043 313.112C29.5571 313.626 29.8141 314.14 29.8141 314.911C29.8141 315.425 29.8141 315.939 30.0711 316.71C30.0711 317.738 31.0992 318.252 32.1273 317.995L33.1553 317.738C34.1834 317.481 34.6974 316.967 34.6974 315.682C34.1834 309.771 37.2676 304.116 35.9825 296.92C35.7255 296.149 36.2395 295.635 37.0106 295.378C44.2071 294.35 48.3194 288.952 48.3194 281.499C48.3194 277.387 45.4922 275.073 43.179 275.073Z" fill="black"/>
<path d="M151.127 275.073C149.07 275.073 148.042 275.587 146.757 277.644C146.243 278.158 145.986 278.158 145.729 277.387C145.215 275.587 143.673 275.073 141.874 275.073C140.075 275.073 138.276 275.587 137.505 277.387C137.248 278.158 136.991 278.158 136.734 277.387C135.448 275.587 134.42 275.073 132.364 275.073C130.565 275.073 127.224 276.873 127.224 281.499C127.224 288.695 130.822 293.579 137.762 295.121C138.533 295.378 138.79 295.635 139.047 296.406C139.561 299.49 139.304 302.317 138.79 305.402C138.533 306.687 137.762 306.43 137.248 305.402L135.191 299.747C133.649 296.149 131.079 295.121 129.023 296.406C127.224 297.948 126.71 302.831 129.537 305.659L136.991 313.112C137.505 313.626 137.762 314.14 137.762 314.911C137.762 315.425 137.762 315.939 138.019 316.71C138.019 317.738 139.047 318.252 140.075 317.995L141.103 317.738C142.131 317.481 142.645 316.967 142.645 315.682C142.131 309.771 145.215 304.116 143.93 296.92C143.673 296.149 144.187 295.635 144.958 295.378C152.155 294.35 156.267 288.952 156.267 281.499C156.267 277.387 153.44 275.073 151.127 275.073Z" fill="black"/>
<path d="M10.7947 233.437C4.88333 233.437 0 238.32 0 244.231C0 250.143 4.88333 255.026 10.7947 255.026C16.7062 255.026 21.8465 250.4 21.8465 244.231C21.8465 238.063 16.9632 233.437 10.7947 233.437Z" fill="black"/>
<path d="M79.1615 275.073C77.1053 275.073 76.0772 275.587 74.7922 277.644C74.2781 278.158 74.0211 278.158 73.7641 277.387C73.25 275.587 71.7079 275.073 69.9088 275.073C68.1097 275.073 66.3106 275.587 65.5395 277.387C65.2825 278.158 65.0255 278.158 64.7685 277.387C63.4834 275.587 62.4553 275.073 60.3991 275.073C58.6 275.073 55.2588 276.873 55.2588 281.499C55.2588 288.695 58.8571 293.579 65.7965 295.121C66.5676 295.378 66.8246 295.635 67.0816 296.406C67.5956 299.49 67.3386 302.317 66.8246 305.402C66.5676 306.687 65.7965 306.43 65.2825 305.402L63.2264 299.747C61.6842 296.149 59.1141 295.121 57.0579 296.406C55.2588 297.948 54.7448 302.831 57.572 305.659L65.0255 313.112C65.5395 313.626 65.7965 314.14 65.7965 314.911C65.7965 315.425 65.7965 315.939 66.0536 316.71C66.0536 317.738 67.0816 318.252 68.1097 317.995L69.1378 317.738C70.1658 317.481 70.6799 316.967 70.6799 315.682C70.1658 309.771 73.2501 304.116 71.965 296.92C71.708 296.149 72.222 295.635 72.9931 295.378C80.1896 294.35 84.3018 288.952 84.3018 281.499C84.3018 277.387 81.4746 275.073 79.1615 275.073Z" fill="black"/>
<path d="M11.8227 55.8371L28.2719 60.7205C29.814 61.2345 30.8421 62.2626 31.3561 63.8047L34.6973 75.1135C35.2113 77.1696 36.2394 77.1696 37.0105 75.1135L40.0947 63.8047C40.6088 62.2626 41.3798 61.2345 43.1789 60.7205L59.3711 55.8371C61.4272 55.3231 61.4272 54.038 59.3711 53.267L43.1789 48.3836C41.6368 48.1266 40.6088 46.8415 40.0947 45.5564L37.0105 33.9906C36.2394 32.1915 35.2113 32.1915 34.6973 33.9906L31.3561 45.5564C30.8421 47.0985 29.814 48.1266 28.2719 48.3836L11.8227 53.267C10.0236 54.038 10.0236 55.3231 11.8227 55.8371Z" fill="black"/>
<path d="M17.4771 106.984C23.6455 106.984 28.5289 102.357 28.5289 96.189C28.5289 90.0206 23.6455 85.3943 17.4771 85.3943C11.3087 85.3943 6.68237 90.2776 6.68237 96.189C6.68237 102.1 11.5657 106.984 17.4771 106.984Z" fill="black"/>
<path d="M18.2481 161.214C12.3367 161.214 7.45337 166.098 7.45337 172.009C7.45337 177.921 12.3367 182.804 18.2481 182.804C24.1595 182.804 29.2999 178.178 29.2999 172.009C29.2999 165.841 24.4166 161.214 18.2481 161.214Z" fill="black"/>
<path d="M123.369 55.8371L139.818 60.7205C141.36 61.2345 142.388 62.2626 142.902 63.8047L146.243 75.1135C146.757 77.1696 147.785 77.1696 148.556 75.1135L151.641 63.8047C152.155 62.2626 152.926 61.2345 154.725 60.7205L170.917 55.8371C172.973 55.3231 172.973 54.038 170.917 53.267L154.725 48.3836C153.183 48.1266 152.155 46.8415 151.641 45.5564L148.556 33.9906C147.785 32.1915 146.757 32.1915 146.243 33.9906L142.902 45.5564C142.388 47.0985 141.36 48.1266 139.818 48.3836L123.369 53.267C121.57 54.038 121.57 55.3231 123.369 55.8371Z" fill="black"/>
<path d="M187.109 87.4503C187.109 81.5389 182.226 76.6556 176.057 76.6556C169.889 76.6556 165.262 81.5389 165.262 87.4503C165.262 93.3617 170.146 98.2451 176.057 98.2451C181.969 98.2451 187.109 93.6188 187.109 87.4503Z" fill="black"/>
<path d="M115.144 275.073C113.088 275.073 112.06 275.587 110.775 277.644C110.261 278.158 110.004 278.158 109.747 277.387C109.232 275.587 107.69 275.073 105.891 275.073C104.092 275.073 102.293 275.587 101.522 277.387C101.265 278.158 101.008 278.158 100.751 277.387C99.4658 275.587 98.4377 275.073 96.3816 275.073C94.5824 275.073 91.2412 276.873 91.2412 281.499C91.2412 288.695 94.8394 293.579 101.779 295.121C102.55 295.378 102.807 295.635 103.064 296.406C103.578 299.49 103.321 302.317 102.807 305.402C102.55 306.687 101.779 306.43 101.265 305.402L99.2087 299.747C97.6666 296.149 95.0965 295.121 93.0403 296.406C91.2412 297.948 90.7272 302.831 93.5543 305.659L101.008 313.112C101.522 313.626 101.779 314.14 101.779 314.911C101.779 315.425 101.779 315.939 102.036 316.71C102.036 317.738 103.064 318.252 104.092 317.995L105.12 317.738C106.148 317.481 106.662 316.967 106.662 315.682C106.148 309.771 109.232 304.116 107.947 296.92C107.69 296.149 108.204 295.635 108.975 295.378C116.172 294.35 120.284 288.952 120.284 281.499C120.284 277.387 117.457 275.073 115.144 275.073Z" fill="black"/>
<path d="M67.5957 55.8371L84.0448 60.7205C85.587 61.2345 86.615 62.2626 87.129 63.8047L90.4703 75.1135C90.9843 77.1696 92.0124 77.1696 92.7834 75.1135L95.8677 63.8047C96.3817 62.2626 97.1527 61.2345 98.9519 60.7205L115.144 55.8371C117.2 55.3231 117.2 54.038 115.144 53.267L98.9519 48.3836C97.4098 48.1266 96.3817 46.8415 95.8677 45.5564L92.7834 33.9906C92.0124 32.1915 90.9843 32.1915 90.4703 33.9906L87.129 45.5564C86.615 47.0985 85.587 48.1266 84.0448 48.3836L67.5957 53.267C65.7966 54.038 65.7966 55.3231 67.5957 55.8371Z" fill="black"/>
<path d="M156.781 200.281C150.869 200.281 145.986 205.165 145.986 211.076C145.986 216.987 150.869 221.871 156.781 221.871C162.692 221.871 167.833 217.244 167.833 211.076C167.833 204.908 162.949 200.281 156.781 200.281Z" fill="black"/>
<path d="M99.466 84.8801H36.4966C35.4686 84.8801 34.6975 85.3942 34.6975 86.6793V262.994C34.6975 264.279 35.4686 264.793 36.4966 264.793H63.7406C64.7686 264.793 65.5397 264.279 65.5397 262.994V200.538C65.5397 199.767 66.0537 199.253 66.8248 199.253H98.952C144.958 199.253 162.949 167.126 162.949 140.139C162.949 114.694 145.472 84.8801 99.466 84.8801ZM95.0967 171.495H66.8248C66.0537 171.495 65.5397 170.981 65.5397 170.21V168.154C65.5397 167.383 66.0537 166.869 66.5678 166.612L72.7362 164.042C73.2502 163.785 73.7642 163.785 74.2783 163.785H81.2178C81.7318 163.785 81.9888 163.785 82.7599 164.042L94.8397 166.612C95.6108 166.869 96.1248 167.126 95.8678 168.154C95.8678 169.182 96.1248 169.696 96.3818 170.467C96.6389 170.981 95.8678 171.495 95.0967 171.495ZM113.088 168.668C112.317 168.925 111.803 168.925 111.289 168.154V167.897C110.775 167.383 110.004 166.869 109.233 166.869H103.578C103.064 166.869 102.293 166.612 101.779 166.098C101.265 165.584 101.265 165.07 102.036 164.556L108.719 160.443C109.49 159.929 110.004 159.672 110.261 158.901L116.686 146.821C116.943 146.05 117.457 145.536 117.457 144.765L118.485 136.284C118.485 135.77 119.256 135.256 119.77 134.999L123.369 133.457C124.654 132.943 124.911 132.171 123.626 131.143L119.256 127.802C118.742 127.288 117.971 127.031 117.2 126.774L115.401 126.26C114.63 126.003 113.859 126.003 113.088 126.26L108.976 127.545C108.205 127.802 107.434 128.316 106.92 128.83L103.064 134.228C102.807 134.742 102.55 134.742 102.036 135.256L87.1292 146.307L76.0774 156.845C75.8204 157.102 75.3064 157.616 74.7923 157.873L67.0818 162.243C66.3107 162.757 65.5397 162.5 65.5397 161.471V112.381C65.5397 111.61 66.0537 111.096 66.8248 111.096H93.8116C121.056 111.096 132.364 124.204 132.364 140.653C132.364 153.761 126.196 164.042 113.088 168.668Z" fill="black"/>
<path d="M137.761 249.115C137.761 243.203 132.878 238.32 126.71 238.32C120.541 238.32 115.915 243.203 115.915 249.115C115.915 255.026 120.798 259.909 126.71 259.909C132.621 259.909 137.761 255.283 137.761 249.115Z" fill="black"/>
<path d="M383.237 225.212V216.73C383.237 215.445 382.466 214.417 381.181 214.16H379.639C378.611 214.417 377.84 215.445 377.84 216.73V225.212C377.84 226.497 377.069 226.754 376.297 225.983L370.386 220.072C369.615 219.301 369.101 219.044 368.33 219.044C366.788 219.044 365.76 220.329 365.76 221.871C365.76 222.385 365.76 223.156 366.531 223.67L372.699 229.838C373.47 230.609 372.956 231.38 371.928 231.38H363.189C362.161 231.123 361.39 231.894 360.876 232.923C360.619 233.694 360.619 234.208 360.876 234.979C361.39 236.007 362.161 236.521 363.189 236.778H371.671C372.699 236.778 373.213 237.549 372.442 238.32L366.531 244.231C365.76 244.745 365.76 245.516 365.76 246.03C365.76 247.059 366.274 248.087 367.302 248.601C368.073 248.858 368.587 248.858 369.358 248.601C369.872 248.344 370.129 248.344 370.386 248.087L376.297 242.175C377.069 241.404 377.84 241.661 377.84 242.946V251.171C377.84 252.713 378.868 253.741 380.41 253.741C382.209 253.741 383.237 252.713 383.237 251.171V242.946C383.237 241.661 384.008 241.404 384.779 242.175L390.69 248.087C390.947 248.344 391.204 248.344 391.461 248.601C392.233 248.858 392.747 248.858 393.775 248.601C394.546 248.087 395.317 247.573 395.317 246.801C395.317 246.287 395.574 245.773 395.317 245.259C395.06 244.745 394.803 244.488 394.546 244.231L388.634 238.32C387.863 237.549 388.377 236.778 389.405 236.778H397.63C399.172 236.521 400.457 235.493 400.457 233.951C400.457 232.408 399.172 231.123 397.63 231.38H389.148C388.12 231.38 387.606 230.609 388.377 229.838L394.546 223.67C394.803 223.413 395.06 222.899 395.317 222.642C395.574 222.128 395.317 221.614 395.317 221.1C395.06 219.815 394.032 219.044 392.49 219.044C391.976 219.044 391.204 219.301 390.69 220.072L384.779 225.983C384.008 226.754 383.237 226.497 383.237 225.212Z" fill="black"/>
<path d="M353.423 146.05C353.423 152.219 358.306 156.845 364.218 156.845C370.129 156.845 375.27 152.219 375.27 146.05C375.27 139.882 370.386 135.256 364.218 135.256C358.049 135.256 353.423 140.139 353.423 146.05Z" fill="black"/>
<path d="M375.27 70.2302C381.438 70.2302 386.321 65.6038 386.321 59.4354C386.321 53.267 381.438 48.6407 375.27 48.6407C369.101 48.6407 364.475 53.524 364.475 59.4354C364.475 65.3468 369.358 70.2302 375.27 70.2302Z" fill="black"/>
<path d="M312.043 121.634C318.211 121.634 323.095 117.007 323.095 110.839C323.095 104.671 318.211 100.044 312.043 100.044C305.874 100.044 301.248 104.928 301.248 110.839C301.248 116.75 306.131 121.634 312.043 121.634Z" fill="black"/>
<path d="M289.682 70.7442C295.851 70.7442 300.734 66.1179 300.734 59.9494C300.734 53.781 295.851 49.1547 289.682 49.1547C283.514 49.1547 278.888 54.038 278.888 59.9494C278.888 65.8609 283.771 70.7442 289.682 70.7442Z" fill="black"/>
<path d="M354.451 301.803C356.25 302.317 357.278 303.345 357.792 305.402L361.647 317.996C362.162 320.309 363.447 320.309 364.218 317.996L367.816 305.402C368.33 303.603 369.358 302.317 371.157 301.803L389.662 296.149C391.976 295.635 391.976 294.093 389.662 293.322L371.157 287.924C369.615 287.41 368.33 286.125 367.816 284.583L364.218 271.475C363.447 269.419 362.162 269.419 361.647 271.475L357.792 284.583C357.278 286.382 355.993 287.41 354.451 287.924L335.689 293.322C333.633 294.093 333.633 295.635 335.689 296.149L354.451 301.803Z" fill="black"/>
<path d="M300.991 151.191L304.59 155.303C305.104 156.074 305.361 156.588 305.104 157.616L301.762 166.098C301.505 166.869 301.505 167.126 301.505 167.64L301.762 178.435C301.762 178.949 302.019 179.463 302.276 179.977L306.646 187.944C306.903 188.458 307.16 188.972 307.417 189.229L313.842 195.141L320.011 199.51C320.782 200.024 321.296 201.052 321.296 201.823L320.268 215.702C320.268 216.473 320.011 216.987 319.24 217.758L316.926 220.072C316.155 220.586 316.155 221.1 317.183 221.614L317.955 221.871C318.469 222.128 318.726 222.385 319.497 221.871L338.516 210.562C339.03 210.305 339.287 209.791 339.03 209.02L338.516 207.992C338.259 207.478 337.745 206.964 337.745 206.964H337.488C335.946 207.221 335.432 206.45 335.946 205.165L336.717 202.337C336.974 201.309 337.745 201.052 338.516 200.538L349.311 195.398C350.082 194.884 350.853 195.141 351.624 195.912L369.615 210.305C370.129 210.819 370.9 210.819 371.414 210.048L374.756 206.45C375.27 205.679 375.27 205.165 374.756 204.651L355.222 185.117C354.708 184.346 354.451 183.575 354.451 182.804L353.68 172.78C353.68 172.266 353.68 171.752 353.166 171.238L346.484 164.556L345.455 163.528L332.091 154.275L330.291 152.733L326.436 147.593C326.179 147.078 325.408 146.564 324.894 146.564L316.412 145.536C315.898 145.536 315.127 145.536 314.613 146.05L310.501 149.906C309.987 150.42 308.959 150.934 308.188 150.677L301.762 149.649C300.734 149.392 300.22 150.42 300.991 151.191ZM324.38 204.394C324.38 203.365 325.408 202.594 326.436 202.851L327.464 203.108C327.978 203.108 328.492 203.108 329.006 202.851L331.576 201.823C332.862 201.309 333.376 201.823 333.376 203.365L333.119 206.964C333.119 207.735 332.862 208.506 332.091 209.02L325.922 213.389C324.637 214.417 323.866 213.646 323.866 212.104L324.38 204.394Z" fill="black"/>
<path d="M316.926 62.7766H325.408C326.436 62.7766 326.95 63.5477 326.179 64.3187L320.268 70.2301C319.496 70.7442 319.497 71.5152 319.497 72.0293C319.497 73.0573 320.011 74.0854 321.039 74.5994C321.81 74.8565 322.324 74.8565 323.095 74.5994C323.609 74.3424 323.866 74.3424 324.123 74.0854L330.034 68.174C330.805 67.4029 331.576 67.66 331.576 68.945V77.1696C331.576 78.7117 332.604 79.7398 334.147 79.7398C335.946 79.7398 336.974 78.7117 336.974 77.1696V68.945C336.974 67.66 337.745 67.4029 338.516 68.174L344.427 74.0854C344.684 74.3424 344.941 74.3424 345.198 74.5994C345.969 74.8565 346.483 74.8565 347.511 74.5994C348.282 74.0854 349.054 73.5714 349.054 72.8003C349.054 72.2863 349.311 71.7722 349.054 71.2582C348.797 70.7442 348.54 70.4872 348.283 70.2301L342.371 64.3187C341.6 63.5477 342.114 62.7766 343.142 62.7766H351.367C352.909 62.5196 354.194 61.4915 354.194 59.9494C354.194 58.4073 352.909 57.1222 351.367 57.3792H342.885C341.857 57.3792 341.343 56.6082 342.114 55.8371L348.283 49.6687C348.54 49.4117 348.797 48.8977 349.054 48.6406C349.311 48.1266 349.054 47.6126 349.054 47.0985C348.797 45.8134 347.768 45.0424 346.226 45.0424C345.712 45.0424 344.941 45.2994 344.427 46.0704L338.516 51.9819C337.745 52.7529 336.974 52.4959 336.974 51.2108V42.7292C336.974 41.4441 336.203 40.4161 334.918 40.159H333.375C332.347 40.4161 331.576 41.4441 331.576 42.7292V51.2108C331.576 52.4959 330.805 52.7529 330.034 51.9819L324.123 46.0704C323.352 45.2994 322.838 45.0424 322.067 45.0424C320.525 45.0424 319.497 46.3275 319.497 47.8696C319.497 48.3836 319.496 49.1547 320.268 49.6687L326.436 55.8371C327.207 56.6082 326.693 57.3792 325.665 57.3792H316.926C315.898 57.1222 315.127 57.8933 314.613 58.9213C314.356 59.6924 314.356 60.2064 314.613 60.9775C315.127 62.0056 315.898 62.5196 316.926 62.7766Z" fill="black"/>
<path d="M347.255 105.699C347.255 111.867 352.138 116.493 358.049 116.493C363.961 116.493 369.101 111.867 369.101 105.699C369.101 99.5302 364.218 94.9039 358.049 94.9039C351.881 94.9039 347.255 99.7872 347.255 105.699Z" fill="black"/>
<path d="M232.367 146.05C238.536 146.05 243.419 141.424 243.419 135.256C243.419 129.087 238.536 124.461 232.367 124.461C226.199 124.461 221.573 129.344 221.573 135.256C221.573 141.167 226.456 146.05 232.367 146.05Z" fill="black"/>
<path d="M240.592 69.2021C246.761 69.2021 251.644 64.5758 251.644 58.4073C251.644 52.2389 246.761 47.6126 240.592 47.6126C234.424 47.6126 229.797 52.4959 229.797 58.4073C229.797 64.3187 234.681 69.2021 240.592 69.2021Z" fill="black"/>
<path d="M213.605 109.297C219.774 109.297 224.657 104.671 224.657 98.5022C224.657 92.3337 219.774 87.7074 213.605 87.7074C207.437 87.7074 202.811 92.5908 202.811 98.5022C202.811 104.414 207.694 109.297 213.605 109.297Z" fill="black"/>
<path d="M211.806 183.061C217.974 183.061 222.858 178.435 222.858 172.266C222.858 166.098 217.974 161.472 211.806 161.472C205.638 161.472 201.011 166.355 201.011 172.266C201.011 178.178 205.895 183.061 211.806 183.061Z" fill="black"/>
<path d="M307.417 313.883C313.585 313.883 318.468 309.257 318.468 303.088C318.468 296.92 313.585 292.294 307.417 292.294C301.248 292.294 296.622 297.177 296.622 303.088C296.622 309 301.505 313.883 307.417 313.883Z" fill="black"/>
<path d="M227.741 299.49L228.255 300.518C228.512 301.289 229.283 301.803 230.054 302.06L232.11 302.317C232.881 302.574 233.91 302.06 234.424 301.289L241.106 292.294C241.62 291.523 241.62 290.752 241.106 289.723L240.849 288.952C240.335 288.181 239.564 287.667 238.536 287.924L234.424 288.952C233.396 289.209 232.881 288.695 233.653 287.667L237.251 283.555C237.765 282.784 238.279 282.27 238.279 281.242L239.564 269.162C239.564 268.134 239.564 267.62 238.793 266.849C238.022 266.335 238.022 265.564 238.536 265.05L241.106 261.709C241.62 260.937 241.877 260.166 241.62 259.395L239.307 249.115C239.05 248.087 238.793 247.573 238.279 247.058L235.452 242.946C234.681 241.918 233.653 242.175 232.881 242.946L224.657 252.456C224.143 252.97 223.886 253.484 223.629 254.512L220.288 270.961C220.288 271.475 220.031 271.989 219.774 272.503L217.203 278.929C216.946 279.957 216.175 279.7 215.404 279.443L213.091 278.158C211.806 277.387 211.035 277.901 210.778 278.929L210.264 280.214C210.007 281.242 209.75 281.499 210.007 282.527L211.292 287.153C211.549 287.667 211.292 288.438 210.778 288.952L207.694 292.037C207.437 292.294 207.18 292.551 206.666 293.065L189.959 305.145L180.45 313.369C179.422 314.14 179.679 315.168 180.964 315.682L189.188 318.766C189.959 319.024 190.473 319.281 191.245 319.281L202.553 319.795C203.324 319.795 204.095 319.281 204.609 318.509L207.951 313.883C208.465 313.112 209.236 313.112 209.75 313.626L211.292 315.168C212.063 315.939 212.834 316.196 213.605 315.682L214.89 314.911L222.858 309C223.372 308.486 223.886 307.972 224.143 306.944L226.199 299.49C226.456 298.462 227.227 298.205 227.741 299.49Z" fill="black"/>
<path d="M254.985 264.793H352.652C353.68 264.793 354.451 264.279 354.451 262.994V237.549C354.451 236.264 353.68 235.75 352.652 235.75H285.313C284.542 235.75 284.028 235.236 284.028 234.465V86.6793C284.028 85.3942 283.257 84.8801 282.229 84.8801H254.985C253.957 84.8801 253.186 85.3942 253.186 86.6793V262.994C253.186 264.279 253.957 264.793 254.985 264.793Z" fill="black"/>
<path d="M268.093 275.073C262.182 275.073 257.298 279.957 257.298 285.868C257.298 291.78 262.182 296.663 268.093 296.663C274.005 296.663 279.145 292.037 279.145 285.868C279.145 279.7 274.262 275.073 268.093 275.073Z" fill="black"/>
<path d="M201 219.558H209.482C210.51 219.558 211.024 220.329 210.253 221.1L204.341 227.011C203.57 227.525 203.57 228.296 203.57 228.81C203.57 229.838 204.084 230.866 205.112 231.38C205.883 231.637 206.397 231.637 207.168 231.38C207.683 231.123 207.94 231.123 208.197 230.866L214.108 224.955C214.879 224.184 215.65 224.441 215.65 225.726V233.951C215.65 235.493 216.678 236.521 218.22 236.521C220.019 236.521 221.047 235.493 221.047 233.951V225.726C221.047 224.441 221.819 224.184 222.59 224.955L228.501 230.866C228.758 231.123 229.015 231.123 229.272 231.38C230.043 231.637 230.557 231.637 231.585 231.38C232.356 230.866 233.127 230.352 233.127 229.581C233.127 229.067 233.384 228.553 233.127 228.039C232.87 227.525 232.613 227.268 232.356 227.011L226.445 221.1C225.674 220.329 226.188 219.558 227.216 219.558H235.44C236.983 219.301 238.268 218.273 238.268 216.73C238.268 215.188 236.983 213.903 235.44 214.16H226.959C225.931 214.16 225.417 213.389 226.188 212.618L232.356 206.45C232.613 206.193 232.87 205.679 233.127 205.422C233.384 204.908 233.127 204.394 233.127 203.88C232.87 202.594 231.842 201.823 230.3 201.823C229.786 201.823 229.015 202.08 228.501 202.851L222.59 208.763C221.819 209.534 221.047 209.277 221.047 207.992V199.51C221.047 198.225 220.276 197.197 218.991 196.94H217.449C216.421 197.197 215.65 198.225 215.65 199.51V207.992C215.65 209.277 214.879 209.534 214.108 208.763L208.197 202.851C207.425 202.08 206.911 201.823 206.14 201.823C204.598 201.823 203.57 203.108 203.57 204.651C203.57 205.165 203.57 205.936 204.341 206.45L210.51 212.618C211.281 213.389 210.767 214.16 209.739 214.16H201C199.972 213.903 199.201 214.674 198.687 215.702C198.43 216.473 198.43 216.987 198.687 217.758C199.201 218.787 199.972 219.301 201 219.558Z" fill="black"/>
<path d="M451.23 275.073C449.174 275.073 448.146 275.587 446.861 277.644C446.347 278.158 446.09 278.158 445.833 277.387C445.319 275.587 443.777 275.073 441.978 275.073C440.178 275.073 438.379 275.587 437.608 277.387C437.351 278.158 437.094 278.158 436.837 277.387C435.552 275.587 434.524 275.073 432.468 275.073C430.669 275.073 427.328 276.873 427.328 281.499C427.328 288.695 430.926 293.579 437.865 295.121C438.636 295.378 438.893 295.635 439.15 296.406C439.664 299.49 439.407 302.317 438.893 305.402C438.636 306.687 437.865 306.43 437.351 305.402L435.295 299.747C433.753 296.149 431.183 295.121 429.127 296.406C427.327 297.948 426.813 302.831 429.641 305.659L437.094 313.112C437.608 313.626 437.865 314.14 437.865 314.911C437.865 315.425 437.865 315.939 438.122 316.71C438.122 317.738 439.15 318.252 440.178 317.995L441.206 317.738C442.235 317.481 442.749 316.967 442.749 315.682C442.235 309.771 445.319 304.116 444.034 296.92C443.777 296.149 444.291 295.635 445.062 295.378C452.258 294.35 456.371 288.952 456.371 281.499C456.371 277.387 453.543 275.073 451.23 275.073Z" fill="black"/>
<path d="M473.848 314.911C473.848 315.425 473.848 315.939 474.105 316.71C474.105 317.738 475.133 318.252 476.161 317.995L477.189 317.738C478.217 317.481 478.731 316.967 478.731 315.682C478.217 309.771 481.301 304.116 480.016 296.92C479.759 296.149 480.273 295.635 481.044 295.378C488.241 294.35 492.353 288.952 492.353 281.499C492.353 277.387 489.526 275.073 487.213 275.073C485.157 275.073 484.129 275.587 482.844 277.644C482.33 278.158 482.073 278.158 481.816 277.387C481.301 275.587 479.759 275.073 477.96 275.073C476.161 275.073 474.362 275.587 473.591 277.387C473.334 278.158 473.077 278.158 472.82 277.387C471.535 275.587 470.507 275.073 468.451 275.073C466.651 275.073 463.31 276.873 463.31 281.499C463.31 288.695 466.908 293.579 473.848 295.121C474.619 295.378 474.876 295.635 475.133 296.406C475.647 299.49 475.39 302.317 474.876 305.402C474.619 306.687 473.848 306.43 473.334 305.402L471.278 299.747C469.736 296.149 467.165 295.121 465.109 296.406C463.31 297.948 462.796 302.831 465.623 305.659L473.077 313.112C473.591 313.626 473.848 314.14 473.848 314.911Z" fill="black"/>
<path d="M652.23 51.9819C658.398 51.9819 663.281 47.3556 663.281 41.1872C663.281 35.0187 658.398 30.3924 652.23 30.3924C646.061 30.3924 641.435 35.2757 641.435 41.1872C641.435 47.0986 646.318 51.9819 652.23 51.9819Z" fill="black"/>
<path d="M538.102 53.781C544.271 53.781 549.154 49.1547 549.154 42.9862C549.154 36.8178 544.271 32.1915 538.102 32.1915C531.934 32.1915 527.308 37.0748 527.308 42.9862C527.308 48.8976 532.191 53.781 538.102 53.781Z" fill="black"/>
<path d="M499.292 165.584L508.802 172.78C513.171 175.864 514.456 179.463 512.914 184.603L509.316 195.912C506.746 204.393 511.629 208.249 518.569 203.108L528.592 195.912C532.962 192.571 537.074 192.828 541.443 195.912L550.696 203.108C557.635 207.992 563.033 204.136 560.206 195.912L556.607 184.603C555.065 179.463 556.093 175.864 560.463 172.78L569.972 165.584C576.912 160.7 574.856 154.789 566.374 154.789H554.551C549.411 154.789 546.07 152.219 544.27 147.335L540.672 136.027C538.102 127.802 531.934 127.802 529.106 135.77L525.251 147.335C523.709 152.219 520.368 154.789 514.97 154.789H502.891C494.409 154.789 492.353 160.443 499.292 165.584Z" fill="black"/>
<path d="M477.189 56.8652H483.614C484.642 56.8652 485.156 57.6363 484.385 58.4073L479.759 63.0336C479.245 63.5477 479.245 64.0617 479.245 64.5758C479.245 65.8608 480.016 66.6319 481.301 66.6319C481.815 66.6319 482.329 66.6319 482.843 66.1179L487.469 61.4915C488.24 60.7205 489.012 60.9775 489.012 62.2626V68.688C489.012 69.9731 489.783 70.7442 491.068 70.7442C492.353 70.7442 493.381 69.9731 493.381 68.688V62.5196C493.381 61.2345 494.152 60.9775 494.923 61.7485L499.292 66.1179C499.806 66.6319 500.32 66.6319 500.834 66.6319C502.119 66.6319 503.148 65.8608 503.148 64.5758C503.148 64.0617 502.891 63.5477 502.376 63.0336L497.75 58.4073C496.979 57.6363 497.493 56.8652 498.521 56.8652H504.947C506.232 56.8652 507.26 56.0942 507.26 54.8091C507.26 53.524 506.232 52.4959 504.947 52.4959H498.778C497.75 52.4959 497.236 51.7249 498.007 50.9538L502.376 46.5845C502.891 46.0705 503.148 45.5564 503.148 45.0424C503.148 43.7573 502.119 42.7292 500.834 42.7292C500.32 42.7292 499.806 42.9862 499.292 43.5003L494.923 47.8696C494.152 48.6406 493.381 48.3836 493.381 47.0985V40.9301C493.381 39.645 492.353 38.6169 491.068 38.6169C489.783 38.6169 489.012 39.645 489.012 40.9301V47.3555C489.012 48.6406 488.24 48.8977 487.469 48.1266L482.843 43.5003C482.329 42.9862 481.815 42.7292 481.301 42.7292C480.016 42.7292 479.245 43.7573 479.245 45.0424C479.245 45.5564 479.245 46.0705 479.759 46.5845L484.128 50.9538C484.899 51.7249 484.385 52.4959 483.357 52.4959H477.189C475.904 52.4959 475.133 53.524 475.133 54.8091C475.133 56.0942 475.904 56.8652 477.189 56.8652Z" fill="black"/>
<path d="M532.962 267.877C586.421 267.877 627.287 227.268 627.287 173.551C627.287 119.835 586.678 79.7398 532.962 79.7398C479.245 79.7398 438.636 120.092 438.636 173.551C438.636 227.011 479.502 267.877 532.962 267.877ZM532.962 108.526C568.944 108.526 595.674 136.284 595.674 173.551C595.674 210.819 568.687 238.834 532.962 238.834C497.236 238.834 469.992 210.819 469.992 173.551C469.992 136.284 496.722 108.526 532.962 108.526Z" fill="black"/>
<path d="M564.575 61.4915L591.819 69.7161C594.389 70.4871 595.931 72.0292 596.959 74.8564L602.357 93.3617C603.385 96.703 605.184 96.703 605.955 93.3617L611.352 74.8564C612.123 72.2863 613.665 70.4871 616.236 69.7161L643.222 61.4915C646.564 60.7205 646.564 58.4073 643.222 57.6362L616.236 49.4117C613.922 48.8976 612.123 46.8415 611.352 44.5283L605.955 25.766C605.184 22.4248 603.385 22.4248 602.357 25.766L596.959 44.5283C595.931 47.3555 594.132 48.8976 591.819 49.4117L564.575 57.6362C561.491 58.4073 561.491 60.7205 564.575 61.4915Z" fill="black"/>
<path d="M656.085 128.83C655.057 128.83 654.543 128.059 655.314 127.288L659.683 122.919C660.197 122.405 660.454 121.891 660.454 121.377C660.454 120.092 659.426 119.064 658.141 119.064C657.627 119.064 657.113 119.321 656.599 119.835L652.23 124.204C651.459 124.975 650.688 124.718 650.688 123.433V117.264C650.688 115.979 649.66 114.951 648.375 114.951C647.089 114.951 646.318 115.979 646.318 117.264V123.69C646.318 124.975 645.547 125.232 644.776 124.461L640.15 119.835C639.636 119.321 639.122 119.064 638.608 119.064C637.323 119.064 636.552 120.092 636.552 121.377C636.552 121.891 636.552 122.405 637.066 122.919L641.435 127.288C642.206 128.059 641.692 128.83 640.664 128.83H634.496C633.211 128.83 632.439 129.858 632.439 131.143C632.439 132.429 633.211 133.2 634.496 133.2H640.921C641.949 133.2 642.463 133.971 641.692 134.742L637.066 139.368C636.552 139.882 636.552 140.396 636.552 140.91C636.552 142.195 637.323 142.966 638.608 142.966C639.122 142.966 639.636 142.966 640.15 142.452L644.776 137.826C645.547 137.055 646.318 137.312 646.318 138.597V145.022C646.318 146.307 647.089 147.079 648.375 147.079C649.66 147.079 650.688 146.307 650.688 145.022V138.854C650.688 137.569 651.459 137.312 652.23 138.083L656.599 142.452C657.113 142.966 657.627 142.966 658.141 142.966C659.426 142.966 660.454 142.195 660.454 140.91C660.454 140.396 660.197 139.882 659.683 139.368L655.057 134.742C654.286 133.971 654.8 133.2 655.828 133.2H662.254C663.539 133.2 664.567 132.429 664.567 131.143C664.567 129.858 663.539 128.83 662.254 128.83H656.085Z" fill="black"/>
<path d="M643.479 94.3898C643.479 88.4784 638.596 83.5951 632.428 83.5951C626.259 83.5951 621.633 88.4784 621.633 94.3898C621.633 100.301 626.516 105.185 632.428 105.185C638.339 105.185 643.479 100.558 643.479 94.3898Z" fill="black"/>
<path d="M545.298 305.402L543.242 299.747C541.7 296.149 539.13 295.121 537.074 296.406C535.275 297.948 534.761 302.831 537.588 305.659L545.041 313.112C545.555 313.626 545.812 314.14 545.812 314.911C545.812 315.425 545.812 315.939 546.069 316.71C546.069 317.738 547.097 318.252 548.126 317.995L549.154 317.738C550.182 317.481 550.696 316.967 550.696 315.682C550.182 309.771 553.266 304.116 551.981 296.92C551.724 296.149 552.238 295.635 553.009 295.378C560.205 294.35 564.318 288.952 564.318 281.499C564.318 277.387 561.49 275.073 559.177 275.073C557.121 275.073 556.093 275.587 554.808 277.644C554.294 278.158 554.037 278.158 553.78 277.387C553.266 275.587 551.724 275.073 549.925 275.073C548.126 275.073 546.326 275.587 545.555 277.387C545.298 278.158 545.041 278.158 544.784 277.387C543.499 275.587 542.471 275.073 540.415 275.073C538.616 275.073 535.275 276.873 535.275 281.499C535.275 288.695 538.873 293.579 545.812 295.121C546.583 295.378 546.84 295.635 547.097 296.406C547.612 299.49 547.354 302.317 546.84 305.402C546.583 306.687 545.812 306.43 545.298 305.402Z" fill="black"/>
<path d="M453.286 88.4784C459.455 88.4784 464.338 83.8521 464.338 77.6837C464.338 71.5152 459.455 66.8889 453.286 66.8889C447.118 66.8889 442.491 71.7722 442.491 77.6837C442.491 83.5951 447.375 88.4784 453.286 88.4784Z" fill="black"/>
<path d="M418.331 210.048C424.5 210.048 429.383 205.422 429.383 199.253C429.383 193.085 424.5 188.458 418.331 188.458C412.163 188.458 407.537 193.342 407.537 199.253C407.537 205.165 412.42 210.048 418.331 210.048Z" fill="black"/>
<path d="M656.085 193.342L660.454 197.711C660.968 198.225 661.482 198.225 661.996 198.225C663.281 198.225 664.309 197.454 664.309 196.169C664.309 195.655 664.052 195.141 663.538 194.627L658.912 190.001C658.141 189.23 658.655 188.458 659.683 188.458H666.109C667.394 188.458 668.422 187.687 668.422 186.402C668.422 185.117 667.394 184.089 666.109 184.089H659.94C658.912 184.089 658.398 183.318 659.169 182.547L663.538 178.178C664.052 177.664 664.309 177.15 664.309 176.636C664.309 175.351 663.281 174.322 661.996 174.322C661.482 174.322 660.968 174.579 660.454 175.094L656.085 179.463C655.314 180.234 654.543 179.977 654.543 178.692V172.523C654.543 171.238 653.515 170.21 652.23 170.21C650.944 170.21 650.173 171.238 650.173 172.523V178.949C650.173 180.234 649.402 180.491 648.631 179.72L644.005 175.094C643.491 174.579 642.977 174.322 642.463 174.322C641.178 174.322 640.407 175.351 640.407 176.636C640.407 177.15 640.407 177.664 640.921 178.178L645.29 182.547C646.061 183.318 645.547 184.089 644.519 184.089H638.351C637.065 184.089 636.294 185.117 636.294 186.402C636.294 187.687 637.065 188.458 638.351 188.458H644.776C645.804 188.458 646.318 189.23 645.547 190.001L640.921 194.627C640.407 195.141 640.407 195.655 640.407 196.169C640.407 197.454 641.178 198.225 642.463 198.225C642.977 198.225 643.491 198.225 644.005 197.711L648.631 193.085C649.402 192.314 650.173 192.571 650.173 193.856V200.281C650.173 201.566 650.944 202.337 652.23 202.337C653.515 202.337 654.543 201.566 654.543 200.281V194.113C654.543 192.828 655.314 192.571 656.085 193.342Z" fill="black"/>
<path d="M517.026 295.378C524.223 294.35 528.335 288.952 528.335 281.499C528.335 277.387 525.508 275.073 523.195 275.073C521.139 275.073 520.111 275.587 518.826 277.644C518.311 278.158 518.054 278.158 517.797 277.387C517.283 275.587 515.741 275.073 513.942 275.073C512.143 275.073 510.344 275.587 509.573 277.387C509.316 278.158 509.059 278.158 508.802 277.387C507.517 275.587 506.489 275.073 504.433 275.073C502.633 275.073 499.292 276.873 499.292 281.499C499.292 288.695 502.89 293.579 509.83 295.121C510.601 295.378 510.858 295.635 511.115 296.406C511.629 299.49 511.372 302.317 510.858 305.402C510.601 306.687 509.83 306.43 509.316 305.402L507.26 299.747C505.718 296.149 503.147 295.121 501.091 296.406C499.292 297.948 498.778 302.831 501.605 305.659L509.059 313.112C509.573 313.626 509.83 314.14 509.83 314.911C509.83 315.425 509.83 315.939 510.087 316.71C510.087 317.738 511.115 318.252 512.143 317.995L513.171 317.738C514.199 317.481 514.713 316.967 514.713 315.682C514.199 309.771 517.283 304.116 515.998 296.92C515.741 296.149 516.255 295.635 517.026 295.378Z" fill="black"/>
<path d="M413.448 47.8696H419.874C420.902 47.8696 421.416 48.6406 420.645 49.4117L416.018 54.038C415.504 54.552 415.504 55.0661 415.504 55.5801C415.504 56.8652 416.275 57.6363 417.561 57.6363C418.075 57.6363 418.589 57.6363 419.103 57.1222L423.729 52.4959C424.5 51.7248 425.271 51.9819 425.271 53.2669V59.6924C425.271 60.9775 426.042 61.7485 427.327 61.7485C428.612 61.7485 429.64 60.9775 429.64 59.6924V53.524C429.64 52.2389 430.411 51.9819 431.182 52.7529L435.552 57.1222C436.066 57.6363 436.58 57.6363 437.094 57.6363C438.379 57.6363 439.407 56.8652 439.407 55.5801C439.407 55.0661 439.15 54.552 438.636 54.038L434.01 49.4117C433.239 48.6406 433.753 47.8696 434.781 47.8696H441.206C442.491 47.8696 443.519 47.0985 443.519 45.8134C443.519 44.5283 442.491 43.5003 441.206 43.5003H435.038C434.01 43.5003 433.496 42.7292 434.267 41.9582L438.636 37.5889C439.15 37.0748 439.407 36.5608 439.407 36.0467C439.407 34.7616 438.379 33.7336 437.094 33.7336C436.58 33.7336 436.066 33.9906 435.552 34.5046L431.182 38.8739C430.411 39.645 429.64 39.388 429.64 38.1029V31.9345C429.64 30.6494 428.612 29.6213 427.327 29.6213C426.042 29.6213 425.271 30.6494 425.271 31.9345V38.3599C425.271 39.645 424.5 39.902 423.729 39.1309L419.103 34.5046C418.589 33.9906 418.075 33.7336 417.561 33.7336C416.275 33.7336 415.504 34.7616 415.504 36.0467C415.504 36.5608 415.504 37.0748 416.018 37.5889L420.388 41.9582C421.159 42.7292 420.645 43.5003 419.617 43.5003H413.448C412.163 43.5003 411.392 44.5283 411.392 45.8134C411.392 47.0985 412.163 47.8696 413.448 47.8696Z" fill="black"/>
<path d="M649.66 213.646C649.403 212.618 648.632 212.618 648.117 213.389L618.303 245.773C617.789 246.544 617.018 246.801 616.247 247.058L606.738 248.344C606.224 248.344 605.709 248.858 605.452 249.372L598.77 256.825C598.513 257.339 598.513 258.11 598.513 258.624L599.541 263.765C599.798 264.793 599.284 265.564 598.513 266.078L591.574 269.933C591.06 270.19 590.545 270.704 590.288 271.218L570.755 302.317C570.498 302.831 570.241 303.088 570.241 303.859L568.442 324.935C568.442 325.963 569.213 326.477 569.984 325.706L589.26 308.743L613.934 280.214C614.705 279.186 615.99 279.186 616.504 280.471L624.215 298.462C624.472 298.976 625.243 299.49 625.757 299.49L631.411 300.004C632.182 300.004 632.696 300.004 632.696 298.976L633.724 288.952C633.724 288.181 633.467 288.181 633.21 287.41L630.897 282.527C630.383 281.242 630.64 280.471 631.925 280.214L647.603 276.872C648.117 276.615 648.632 276.358 648.632 275.587L649.146 270.704C649.146 269.933 648.632 269.419 647.86 269.419L637.066 270.447C636.295 270.447 635.781 270.704 635.01 270.447L623.444 267.877C622.159 267.62 621.645 266.849 622.416 265.564L653.001 223.413C653.258 222.899 653.258 222.128 653.001 221.614L649.66 213.646Z" fill="black"/>
<path d="M420.131 102.614H413.962C412.677 102.614 411.906 103.643 411.906 104.928C411.906 106.213 412.677 106.984 413.962 106.984H420.388C421.416 106.984 421.93 107.755 421.159 108.526L416.533 113.152C416.019 113.666 416.019 114.18 416.019 114.694C416.019 115.979 416.79 116.75 418.075 116.75C418.589 116.75 419.103 116.75 419.617 116.236L424.243 111.61C425.014 110.839 425.785 111.096 425.785 112.381V118.807C425.785 120.092 426.556 120.863 427.841 120.863C429.126 120.863 430.155 120.092 430.155 118.807V112.638C430.155 111.353 430.926 111.096 431.697 111.867L436.066 116.236C436.58 116.75 437.094 116.75 437.608 116.75C438.893 116.75 439.921 115.979 439.921 114.694C439.921 114.18 439.664 113.666 439.15 113.152L434.524 108.526C433.753 107.755 434.267 106.984 435.295 106.984H441.72C443.005 106.984 444.033 106.213 444.033 104.928C444.033 103.643 443.005 102.614 441.72 102.614H435.552C434.524 102.614 434.01 101.843 434.781 101.072L439.15 96.703C439.664 96.189 439.921 95.675 439.921 95.1609C439.921 93.8758 438.893 92.8478 437.608 92.8478C437.094 92.8478 436.58 93.1048 436.066 93.6188L431.697 97.9881C430.926 98.7592 430.155 98.5022 430.155 97.2171V91.0486C430.155 89.7635 429.126 88.7355 427.841 88.7355C426.556 88.7355 425.785 89.7635 425.785 91.0486V97.4741C425.785 98.7592 425.014 99.0162 424.243 98.2451L419.617 93.6188C419.103 93.1048 418.589 92.8478 418.075 92.8478C416.79 92.8478 416.019 93.8758 416.019 95.1609C416.019 95.675 416.019 96.189 416.533 96.703L420.902 101.072C421.673 101.843 421.159 102.614 420.131 102.614Z" fill="black"/>
<path d="M443.262 247.829H449.688C450.973 247.829 452.001 247.058 452.001 245.773C452.001 244.488 450.973 243.46 449.688 243.46H443.519C442.491 243.46 441.977 242.689 442.748 241.918L447.118 237.549C447.632 237.035 447.889 236.521 447.889 236.007C447.889 234.722 446.861 233.693 445.576 233.693C445.062 233.693 444.547 233.951 444.033 234.465L439.664 238.834C438.893 239.605 438.122 239.348 438.122 238.063V231.894C438.122 230.609 437.094 229.581 435.809 229.581C434.524 229.581 433.753 230.609 433.753 231.894V238.32C433.753 239.605 432.982 239.862 432.211 239.091L427.584 234.465C427.07 233.951 426.556 233.693 426.042 233.693C424.757 233.693 423.986 234.722 423.986 236.007C423.986 236.521 423.986 237.035 424.5 237.549L428.869 241.918C429.64 242.689 429.126 243.46 428.098 243.46H421.93C420.645 243.46 419.874 244.488 419.874 245.773C419.874 247.058 420.645 247.829 421.93 247.829H428.355C429.383 247.829 429.897 248.601 429.126 249.372L424.5 253.998C423.986 254.512 423.986 255.026 423.986 255.54C423.986 256.825 424.757 257.596 426.042 257.596C426.556 257.596 427.07 257.596 427.584 257.082L432.211 252.456C432.982 251.685 433.753 251.942 433.753 253.227V259.652C433.753 260.937 434.524 261.708 435.809 261.708C437.094 261.708 438.122 260.937 438.122 259.652V253.484C438.122 252.199 438.893 251.942 439.664 252.713L444.033 257.082C444.547 257.596 445.062 257.596 445.576 257.596C446.861 257.596 447.889 256.825 447.889 255.54C447.889 255.026 447.632 254.512 447.118 253.998L442.491 249.372C441.72 248.601 442.234 247.829 443.262 247.829Z" fill="black"/>
<path d="M424.243 162.243C430.412 162.243 435.295 157.616 435.295 151.448C435.295 145.279 430.412 140.653 424.243 140.653C418.075 140.653 413.449 145.536 413.449 151.448C413.449 157.359 418.332 162.243 424.243 162.243Z" fill="black"/>
<path d="M741.59 68.6881C747.759 68.6881 752.642 64.0618 752.642 57.8933C752.642 51.7249 747.759 47.0986 741.59 47.0986C735.422 47.0986 730.795 51.9819 730.795 57.8933C730.795 63.8047 735.679 68.6881 741.59 68.6881Z" fill="black"/>
<path d="M785.283 159.415C791.452 159.415 796.335 154.789 796.335 148.621C796.335 142.452 791.452 137.826 785.283 137.826C779.115 137.826 774.489 142.709 774.489 148.621C774.489 154.532 779.372 159.415 785.283 159.415Z" fill="black"/>
<path d="M775.26 196.426C781.428 196.426 786.311 191.8 786.311 185.631C786.311 179.463 781.428 174.836 775.26 174.836C769.091 174.836 764.465 179.72 764.465 185.631C764.465 191.543 769.348 196.426 775.26 196.426Z" fill="black"/>
<path d="M852.365 51.4679C858.533 51.4679 863.417 46.8416 863.417 40.6731C863.417 34.5047 858.533 29.8784 852.365 29.8784C846.197 29.8784 841.57 34.7617 841.57 40.6731C841.57 46.5845 846.454 51.4679 852.365 51.4679Z" fill="black"/>
<path d="M886.034 67.917C892.202 67.917 897.086 63.2907 897.086 57.1222C897.086 50.9538 892.202 46.3275 886.034 46.3275C879.866 46.3275 875.239 51.2108 875.239 57.1222C875.239 63.0336 880.123 67.917 886.034 67.917Z" fill="black"/>
<path d="M711.25 54.038C717.419 54.038 722.302 49.4117 722.302 43.2433C722.302 37.0748 717.419 32.4485 711.25 32.4485C705.082 32.4485 700.456 37.3319 700.456 43.2433C700.456 49.1547 705.339 54.038 711.25 54.038Z" fill="black"/>
<path d="M688.89 219.815C695.058 219.815 699.941 215.188 699.941 209.02C699.941 202.851 695.058 198.225 688.89 198.225C682.721 198.225 678.095 203.108 678.095 209.02C678.095 214.931 682.978 219.815 688.89 219.815Z" fill="black"/>
<path d="M696.344 103.9C702.512 103.9 707.395 99.2732 707.395 93.1048C707.395 86.9363 702.512 82.31 696.344 82.31C690.175 82.31 685.549 87.1934 685.549 93.1048C685.549 99.0162 690.432 103.9 696.344 103.9Z" fill="black"/>
<path d="M715.889 271.732C722.057 271.732 726.941 267.106 726.941 260.938C726.941 254.769 722.057 250.143 715.889 250.143C709.72 250.143 705.094 255.026 705.094 260.938C705.094 266.849 709.977 271.732 715.889 271.732Z" fill="black"/>
<path d="M712.022 152.476C712.022 146.564 707.138 141.681 700.97 141.681C694.801 141.681 690.175 146.564 690.175 152.476C690.175 158.387 695.059 163.271 700.97 163.271C706.881 163.271 712.022 158.644 712.022 152.476Z" fill="black"/>
<path d="M854.422 304.63C848.51 304.63 843.627 309.514 843.627 315.425C843.627 321.337 848.51 326.22 854.422 326.22C860.333 326.22 865.473 321.594 865.473 315.425C865.473 309.257 860.59 304.63 854.422 304.63Z" fill="black"/>
<path d="M887.319 213.903C881.408 213.903 876.524 218.787 876.524 224.698C876.524 230.609 881.408 235.493 887.319 235.493C893.231 235.493 898.371 230.866 898.371 224.698C898.371 218.53 893.488 213.903 887.319 213.903Z" fill="black"/>
<path d="M899.656 154.789C899.399 153.247 898.371 153.504 897.343 154.275L889.376 161.472C888.605 162.243 887.833 161.729 887.833 160.7L889.119 149.392C889.119 148.364 889.376 148.364 889.376 147.336L888.09 130.629C888.09 130.115 888.347 129.344 888.862 128.83L889.376 128.316C889.89 127.802 890.404 127.288 890.661 126.517L896.829 112.895C897.086 112.124 897.6 111.867 897.6 110.839L898.628 102.357C898.628 101.586 898.628 100.815 898.371 100.044L894.516 90.2776C894.002 88.9925 893.231 88.9925 892.203 89.7636L888.347 93.3618C887.576 94.1329 887.062 93.8758 886.548 93.1048L883.978 88.2214C883.464 87.1934 882.693 87.1934 881.665 87.7074L873.44 92.3337C872.926 92.5908 872.155 92.3337 871.898 91.8197L870.356 89.2495C869.585 87.9644 868.3 87.9644 867.786 89.2495L865.473 94.1329C865.216 94.9039 864.702 95.418 864.702 96.189L862.903 106.727C862.731 107.412 862.646 108.098 862.646 108.783L863.931 120.863C863.931 121.634 864.445 122.148 865.216 122.919L870.87 127.545C871.384 128.059 871.641 128.059 871.898 128.573L873.697 130.886C873.955 131.4 874.212 131.915 874.212 132.429V151.448L870.099 176.893C870.099 177.664 869.585 177.921 869.328 178.435L859.561 192.828C858.79 193.856 858.019 193.599 858.019 192.314L858.276 86.6793C858.276 85.3943 857.505 84.8802 856.477 84.8802H829.233C828.205 84.8802 827.434 85.3943 827.434 86.6793L827.177 142.452C827.177 143.737 826.149 143.994 825.635 142.966L822.294 137.569C822.037 137.055 821.523 136.541 821.523 136.027L816.382 114.437L810.471 99.0162C810.214 98.2451 810.471 98.2451 810.728 97.4741L820.495 79.4828L821.266 77.4267L825.378 65.3468C825.635 64.3188 825.378 64.0618 825.378 63.0337L824.35 54.2951C824.35 53.267 823.579 52.753 823.065 52.4959C822.294 52.2389 821.523 52.2389 820.752 53.01L814.583 57.8933C814.069 58.4074 813.298 59.1784 813.041 59.6925L806.616 70.7442C806.359 71.5153 806.102 72.0293 806.102 73.0574V83.5951C806.102 84.8802 805.074 85.1372 804.56 84.1091L801.218 78.1977C800.961 77.6837 800.704 77.4267 800.704 76.6556L802.246 63.8047V61.7486L801.732 58.4074C801.732 57.3793 801.475 57.1223 801.218 56.3512L796.849 48.3837C796.335 47.3556 795.821 47.0986 795.564 47.0986C795.307 47.0986 794.793 47.8696 794.536 48.6407L793.508 52.753C793.251 53.524 792.48 53.781 791.709 53.267L788.625 51.2109C787.596 50.4398 786.568 50.6968 786.311 52.2389L786.054 55.0661C786.054 56.0942 785.026 56.3512 784.255 55.8372L781.685 54.0381C780.657 53.267 779.372 54.0381 779.115 55.0661L777.83 59.1784C777.573 60.2065 776.802 60.2065 776.031 59.9495L771.661 58.1504C770.376 57.6363 769.605 58.4074 769.862 59.6925L771.147 65.8609C771.404 66.889 771.661 67.403 771.918 67.917L777.83 77.6837C778.344 78.4548 779.115 78.7118 779.886 78.9688L787.596 80.7679L789.396 81.0249C790.167 81.282 790.681 81.539 790.938 82.053L796.335 89.2495C796.592 89.7636 796.849 90.0206 797.106 90.7916L800.704 103.643L801.989 110.325C802.246 111.353 801.218 111.867 800.447 111.096L793.765 104.414L783.227 95.4179C782.713 94.9039 782.199 94.6469 781.428 94.1329L777.573 92.0767C776.802 91.8197 776.288 91.5627 776.031 91.5627C775.774 91.5627 775.26 92.3337 775.26 93.3618L775.003 104.414C775.003 105.442 775.26 105.956 775.517 106.727L778.858 112.895C779.115 113.666 779.629 114.18 780.143 114.694L788.625 121.634C789.139 122.148 789.653 122.405 790.424 122.919L803.275 129.601C803.789 129.858 804.046 130.115 804.303 130.886L809.443 145.536L818.696 163.785C818.953 164.556 819.467 165.07 819.981 165.584L826.406 170.981C826.92 171.238 827.177 171.752 827.177 172.523V194.113C827.177 225.726 814.326 239.605 788.625 239.605C762.923 239.605 750.072 225.726 750.072 194.113L749.815 86.6793C749.815 85.3943 749.044 84.8802 748.016 84.8802H720.772C719.744 84.8802 718.973 85.3943 718.973 86.6793L719.23 195.398C719.23 247.059 749.301 269.933 788.625 269.933C823.579 269.933 851.08 251.685 856.991 211.59C856.991 211.076 857.248 210.562 857.505 210.305L874.469 192.828C874.726 192.571 875.24 192.314 875.754 192.057L881.922 188.972C882.693 188.458 883.207 188.201 883.721 187.687L891.689 181.005C892.203 180.491 892.46 179.72 892.974 179.206L896.572 174.065C897.086 173.551 897.086 172.78 897.343 172.009L900.427 160.7C900.599 160.015 900.599 159.33 900.427 158.644L899.656 154.789Z" fill="black"/>
<path d="M882.95 280.214L870.87 274.302C870.356 274.045 869.842 274.045 869.328 274.045L844.911 269.933H843.369L820.751 272.503C820.237 272.503 819.723 272.503 819.209 272.76L787.853 282.784C787.082 283.041 786.568 283.041 785.797 283.041H776.03C775.516 283.041 775.002 283.041 774.488 283.298L766.264 285.354C765.492 285.611 764.978 285.611 764.207 285.611L746.987 285.868C746.473 285.868 745.959 285.868 745.445 286.125L730.795 289.724C730.281 289.981 729.767 289.981 729.253 290.495L715.374 300.775L700.981 312.341C700.467 312.598 700.21 313.112 700.21 313.626C700.21 314.14 700.724 314.654 701.238 314.911L710.748 319.281C711.262 319.538 711.776 319.795 712.547 319.281L713.575 318.767C714.089 318.51 714.346 317.996 715.117 317.738C715.631 317.481 716.145 317.481 716.659 317.481L727.711 316.71C728.225 316.71 728.739 316.453 729.253 316.196L733.622 312.084C734.393 311.313 734.907 311.313 735.678 311.056L750.585 308.486L769.348 305.659C770.376 305.402 770.633 305.659 771.404 305.659L779.885 306.43C780.657 306.43 781.428 306.944 781.942 307.715L786.054 312.084C786.568 312.855 787.082 313.112 787.339 313.883L791.194 322.622C791.451 323.393 791.708 323.393 792.222 323.65L800.961 327.248C801.475 327.505 801.732 327.505 802.503 327.248L812.784 325.449C813.298 325.449 813.812 325.192 814.326 324.935L819.209 322.622C819.723 322.365 820.237 321.594 820.237 321.08L820.494 319.538C820.494 319.024 820.409 318.51 820.237 317.996L818.695 313.112C818.438 312.341 818.181 312.084 817.667 311.827L809.7 308.229C808.929 307.715 808.414 307.201 808.157 306.43C807.9 305.402 808.414 304.888 809.186 304.374L809.957 303.86L825.121 296.663L841.056 290.752C841.827 290.495 842.341 290.238 843.112 290.238L854.678 288.181C855.449 287.924 856.22 287.924 856.991 288.438L865.215 292.294C865.73 292.551 866.244 292.551 866.758 292.294L874.468 289.467C875.239 289.209 875.753 289.209 876.524 289.209H879.094C879.608 289.209 879.866 289.209 880.637 288.952L882.693 288.695C883.464 288.695 883.721 287.924 883.721 287.153L883.978 281.756C883.978 281.242 883.464 280.471 882.95 280.214Z" fill="black"/>
<path d="M818.953 204.907C818.953 198.996 814.069 194.113 807.901 194.113C801.733 194.113 797.106 198.996 797.106 204.907C797.106 210.819 801.99 215.702 807.901 215.702C813.812 215.702 818.953 211.076 818.953 204.907Z" fill="black"/>
<path d="M1052.72 275.073C1050.67 275.073 1049.64 275.587 1048.35 277.644C1047.84 278.158 1047.58 278.158 1047.32 277.387C1046.81 275.587 1045.27 275.073 1043.47 275.073C1041.67 275.073 1039.87 275.587 1039.1 277.387C1038.84 278.158 1038.59 278.158 1038.33 277.387C1037.04 275.587 1036.02 275.073 1033.96 275.073C1032.16 275.073 1028.82 276.873 1028.82 281.499C1028.82 288.695 1032.42 293.579 1039.36 295.121C1040.13 295.378 1040.39 295.635 1040.64 296.406C1041.16 299.49 1040.9 302.317 1040.39 305.402C1040.13 306.687 1039.36 306.43 1038.84 305.402L1036.79 299.747C1035.24 296.149 1032.67 295.121 1030.62 296.406C1028.82 297.948 1028.31 302.831 1031.13 305.659L1038.59 313.112C1039.1 313.626 1039.36 314.14 1039.36 314.911C1039.36 315.425 1039.36 315.939 1039.61 316.71C1039.61 317.738 1040.64 318.252 1041.67 317.995L1042.7 317.738C1043.73 317.481 1044.24 316.967 1044.24 315.682C1043.73 309.771 1046.81 304.116 1045.53 296.92C1045.27 296.149 1045.78 295.635 1046.55 295.378C1053.75 294.35 1057.86 288.952 1057.86 281.499C1057.86 277.387 1055.04 275.073 1052.72 275.073Z" fill="black"/>
<path d="M1088.7 275.073C1086.65 275.073 1085.62 275.587 1084.34 277.644C1083.82 278.158 1083.56 278.158 1083.31 277.387C1082.79 275.587 1081.25 275.073 1079.45 275.073C1077.65 275.073 1075.85 275.587 1075.08 277.387C1074.83 278.158 1074.57 278.158 1074.31 277.387C1073.03 275.587 1072 275.073 1069.94 275.073C1068.14 275.073 1064.8 276.873 1064.8 281.499C1064.8 288.695 1068.4 293.579 1075.34 295.121C1076.11 295.378 1076.37 295.635 1076.62 296.406C1077.14 299.49 1076.88 302.317 1076.37 305.402C1076.11 306.687 1075.34 306.43 1074.83 305.402L1072.77 299.747C1071.23 296.149 1068.66 295.121 1066.6 296.406C1064.8 297.948 1064.29 302.831 1067.11 305.659L1074.57 313.112C1075.08 313.626 1075.34 314.14 1075.34 314.911C1075.34 315.425 1075.34 315.939 1075.6 316.71C1075.6 317.738 1076.62 318.252 1077.65 317.995L1078.68 317.738C1079.71 317.481 1080.22 316.967 1080.22 315.682C1079.71 309.771 1082.79 304.116 1081.51 296.92C1081.25 296.149 1081.77 295.635 1082.54 295.378C1089.73 294.35 1093.84 288.952 1093.84 281.499C1093.84 277.387 1091.02 275.073 1088.7 275.073Z" fill="black"/>
<path d="M1100.27 165.841C1094.36 165.841 1089.48 170.724 1089.48 176.636C1089.48 182.547 1094.36 187.43 1100.27 187.43C1106.18 187.43 1111.32 182.804 1111.32 176.636C1111.32 170.467 1106.44 165.841 1100.27 165.841Z" fill="black"/>
<path d="M1084.59 214.16C1078.68 214.16 1073.8 219.044 1073.8 224.955C1073.8 230.866 1078.68 235.75 1084.59 235.75C1090.5 235.75 1095.64 231.123 1095.64 224.955C1095.64 218.787 1090.76 214.16 1084.59 214.16Z" fill="black"/>
<path d="M961.995 58.1503L963.537 59.9494L978.187 71.0012C978.958 71.7723 979.729 71.5152 980.5 71.2582L990.524 67.66C991.295 67.403 991.809 67.403 992.066 68.431L992.837 73.3144C993.094 74.3424 993.351 74.8565 994.636 75.1135L997.72 75.3705L1013.4 74.8565C1014.17 74.8565 1014.94 74.8565 1015.71 74.0854L1026.25 64.8328C1027.02 64.0617 1028.05 64.5758 1027.79 65.6038L1027.02 69.9731C1026.76 70.7442 1027.02 71.7723 1027.79 72.2863L1031.13 75.1135C1031.9 75.6275 1032.67 75.8846 1033.45 75.6275L1051.44 69.7161C1052.21 69.4591 1052.98 68.6881 1052.98 67.66L1053.24 64.8328C1053.24 63.8047 1052.72 63.0337 1051.95 62.7766L1043.47 59.1784C1042.44 58.6643 1042.44 57.8933 1043.47 57.6363L1054.26 55.0661C1055.04 54.8091 1055.81 54.5521 1056.32 53.781L1069.69 39.131C1070.2 38.3599 1070.71 37.5889 1070.46 36.8178L1069.94 35.0187C1069.69 34.2476 1070.2 33.7336 1070.97 33.4766L1078.17 31.1634C1078.94 30.9064 1079.71 30.1354 1079.97 29.3643L1086.39 13.4292C1086.65 12.6581 1086.91 12.1441 1086.91 11.373V1.60635C1086.91 0.321264 1085.88 -0.192763 1084.85 0.0642552L1064.54 5.20461C1063.77 5.46163 1063.26 5.46163 1062.49 6.23269L1042.7 24.995C1042.44 25.252 1041.93 25.7661 1041.41 26.0231L1031.65 32.4485C1030.88 32.9626 1030.1 32.7055 1029.85 31.9345L1027.28 26.2801C1026.76 24.995 1025.99 24.995 1024.96 25.509L1021.62 27.5652C1020.85 28.0792 1020.34 28.5932 1020.08 29.6213L1017.25 37.5889C1017 38.1029 1016.74 38.617 1015.97 38.874L1007.74 40.1591L974.845 40.9301L954.027 42.9862C952.742 43.2433 952.228 44.2713 952.999 45.2994L961.995 58.1503Z" fill="black"/>
<path d="M1003.89 96.7031C997.977 96.7031 993.094 101.586 993.094 107.498C993.094 113.409 997.977 118.293 1003.89 118.293C1009.8 118.293 1014.94 113.666 1014.94 107.498C1014.94 101.329 1010.06 96.7031 1003.89 96.7031Z" fill="black"/>
<path d="M1015.46 149.392C1015.46 155.56 1020.34 160.187 1026.25 160.187C1032.16 160.187 1037.3 155.56 1037.3 149.392C1037.3 143.223 1032.42 138.597 1026.25 138.597C1020.08 138.597 1015.46 143.48 1015.46 149.392Z" fill="black"/>
<path d="M956.598 156.331C956.598 150.42 951.714 145.536 945.546 145.536C939.378 145.536 934.751 150.42 934.751 156.331C934.751 162.243 939.635 167.126 945.546 167.126C951.457 167.126 956.598 162.5 956.598 156.331Z" fill="black"/>
<path d="M980.757 275.073C978.701 275.073 977.673 275.587 976.388 277.644C975.874 278.158 975.617 278.158 975.36 277.387C974.846 275.587 973.304 275.073 971.505 275.073C969.705 275.073 967.906 275.587 967.135 277.387C966.878 278.158 966.621 278.158 966.364 277.387C965.079 275.587 964.051 275.073 961.995 275.073C960.196 275.073 956.854 276.873 956.854 281.499C956.854 288.695 960.453 293.579 967.392 295.121C968.163 295.378 968.42 295.635 968.677 296.406C969.191 299.49 968.934 302.317 968.42 305.402C968.163 306.687 967.392 306.43 966.878 305.402L964.822 299.747C963.28 296.149 960.71 295.121 958.654 296.406C956.855 297.948 956.341 302.831 959.168 305.659L966.621 313.112C967.135 313.626 967.392 314.14 967.392 314.911C967.392 315.425 967.392 315.939 967.649 316.71C967.649 317.738 968.677 318.252 969.705 317.995L970.733 317.738C971.762 317.481 972.276 316.967 972.276 315.682C971.762 309.771 974.846 304.116 973.561 296.92C973.304 296.149 973.818 295.635 974.589 295.378C981.785 294.35 985.898 288.952 985.898 281.499C985.898 277.387 983.07 275.073 980.757 275.073Z" fill="black"/>
<path d="M1099.5 84.8801H1070.97C1069.94 84.8801 1069.17 85.3942 1068.91 86.1652L1017 208.763C1016.48 209.791 1015.97 209.791 1015.45 208.763L964.308 86.1652C964.051 85.3942 963.28 84.8801 962.252 84.8801H933.466C932.181 84.8801 931.41 85.6512 931.924 86.9363L1006.72 263.508C1006.97 264.279 1007.74 264.793 1008.77 264.793H1024.19C1025.22 264.793 1025.99 264.279 1026.25 263.508L1101.04 86.9363C1101.56 85.6512 1100.78 84.8801 1099.5 84.8801Z" fill="black"/>
<path d="M962.252 210.048C962.252 204.137 957.368 199.253 951.2 199.253C945.032 199.253 940.405 204.137 940.405 210.048C940.405 215.959 945.289 220.843 951.2 220.843C957.111 220.843 962.252 216.216 962.252 210.048Z" fill="black"/>
<path d="M946.316 62.2626C946.316 56.3512 941.433 51.4678 935.264 51.4678C929.096 51.4678 924.47 56.3512 924.47 62.2626C924.47 68.174 929.353 73.0573 935.264 73.0573C941.176 73.0573 946.316 68.431 946.316 62.2626Z" fill="black"/>
<path d="M1016.74 275.073C1014.68 275.073 1013.66 275.587 1012.37 277.644C1011.86 278.158 1011.6 278.158 1011.34 277.387C1010.83 275.587 1009.29 275.073 1007.49 275.073C1005.69 275.073 1003.89 275.587 1003.12 277.387C1002.86 278.158 1002.6 278.158 1002.35 277.387C1001.06 275.587 1000.03 275.073 997.977 275.073C996.178 275.073 992.837 276.873 992.837 281.499C992.837 288.695 996.435 293.579 1003.37 295.121C1004.15 295.378 1004.4 295.635 1004.66 296.406C1005.17 299.49 1004.92 302.317 1004.4 305.402C1004.15 306.687 1003.37 306.43 1002.86 305.402L1000.8 299.747C999.262 296.149 996.692 295.121 994.636 296.406C992.837 297.948 992.323 302.831 995.15 305.659L1002.6 313.112C1003.12 313.626 1003.37 314.14 1003.37 314.911C1003.37 315.425 1003.37 315.939 1003.63 316.71C1003.63 317.738 1004.66 318.252 1005.69 317.995L1006.72 317.738C1007.74 317.481 1008.26 316.967 1008.26 315.682C1007.74 309.771 1010.83 304.116 1009.54 296.92C1009.29 296.149 1009.8 295.635 1010.57 295.378C1017.77 294.35 1021.88 288.952 1021.88 281.499C1021.88 277.387 1019.05 275.073 1016.74 275.073Z" fill="black"/>
<path d="M1077.65 54.8091C1077.65 60.9775 1082.54 65.6038 1088.45 65.6038C1094.36 65.6038 1099.5 60.9775 1099.5 54.8091C1099.5 48.6406 1094.62 44.0143 1088.45 44.0143C1082.28 44.0143 1077.65 48.8977 1077.65 54.8091Z" fill="black"/>
<path d="M973.304 258.11C979.472 258.11 984.355 253.484 984.355 247.316C984.355 241.147 979.472 236.521 973.304 236.521C967.135 236.521 962.509 241.404 962.509 247.316C962.509 253.227 967.392 258.11 973.304 258.11Z" fill="black"/>
<path d="M1037.81 96.703C1037.81 102.871 1042.7 107.498 1048.61 107.498C1054.52 107.498 1059.66 102.871 1059.66 96.703C1059.66 90.5345 1054.78 85.9082 1048.61 85.9082C1042.44 85.9082 1037.81 90.7916 1037.81 96.703Z" fill="black"/>
<path d="M263.689 598.659C257.777 598.659 252.894 603.542 252.894 609.454C252.894 615.365 257.777 620.249 263.689 620.249C269.6 620.249 274.741 615.622 274.741 609.454C274.741 603.285 269.857 598.659 263.689 598.659Z" fill="black"/>
<path d="M261.889 496.88C261.889 490.969 257.006 486.085 250.838 486.085C244.669 486.085 240.043 490.969 240.043 496.88C240.043 502.791 244.926 507.675 250.838 507.675C256.749 507.675 261.889 503.048 261.889 496.88Z" fill="black"/>
<path d="M435.12 584.009L358.014 407.438C357.757 406.667 356.986 406.153 355.958 406.153H336.939C335.911 406.153 335.14 406.667 334.883 407.438L259.577 584.009C259.063 585.294 259.834 586.065 261.119 586.065H289.648C290.676 586.065 291.447 585.551 291.704 584.78L307.639 546.484C307.896 545.97 308.667 545.456 309.181 545.456H384.487C385.001 545.456 385.772 545.97 386.029 546.484L402.478 584.78C402.736 585.551 403.507 586.065 404.535 586.065H433.835C435.12 586.065 435.634 585.294 435.12 584.009ZM371.636 517.184H321.518C320.747 517.184 320.233 516.413 320.49 515.642L345.421 456.785C345.935 455.757 346.449 455.757 346.963 456.785L372.407 515.642C372.664 516.413 372.407 517.184 371.636 517.184Z" fill="black"/>
<path d="M237.473 546.227C231.561 546.227 226.678 551.111 226.678 557.022C226.678 562.933 231.561 567.817 237.473 567.817C243.384 567.817 248.525 563.19 248.525 557.022C248.525 550.854 243.641 546.227 237.473 546.227Z" fill="black"/>
<path d="M260.347 374.796C266.516 374.796 271.399 370.17 271.399 364.002C271.399 357.833 266.516 353.207 260.347 353.207C254.179 353.207 249.552 358.09 249.552 364.002C249.552 369.913 254.436 374.796 260.347 374.796Z" fill="black"/>
<path d="M377.034 609.968C376.52 609.197 376.263 608.426 376.263 607.655L375.492 597.631C375.492 597.117 375.492 596.603 374.978 596.089L368.295 589.406C368.038 589.149 367.781 588.892 367.267 588.378L353.902 579.126L352.103 577.583L348.248 572.443C347.991 571.929 347.22 571.415 346.706 571.415L338.224 570.387C337.71 570.387 336.939 570.387 336.425 570.901L332.313 574.756C331.799 575.27 330.77 575.784 329.999 575.527L323.574 574.499C322.546 574.242 322.032 575.27 322.803 576.041L326.401 580.154C326.915 580.925 327.172 581.439 326.915 582.467L323.574 590.948C323.317 591.719 323.317 591.976 323.317 592.49L323.574 603.285C323.574 603.799 323.831 604.313 324.088 604.827L328.457 612.795C328.714 613.309 328.971 613.823 329.228 614.08L335.654 619.991L341.822 624.361C342.593 624.875 343.107 625.903 343.107 626.674L342.079 640.553C342.079 641.324 341.822 641.838 341.051 642.609L338.738 644.922C337.967 645.436 337.967 645.95 338.995 646.464L339.766 646.721C340.28 646.978 340.537 647.235 341.308 646.721L360.328 635.412C360.842 635.155 361.099 634.641 360.842 633.87L360.328 632.842C360.071 632.328 359.556 631.814 359.556 631.814H359.299C357.757 632.071 357.243 631.3 357.757 630.015L358.528 627.188C358.785 626.16 359.557 625.903 360.328 625.389L371.122 620.248C371.893 619.734 372.664 619.991 373.435 620.762L391.427 635.155C391.941 635.669 392.712 635.67 393.226 634.898L396.567 631.3C397.081 630.529 397.081 630.015 396.567 629.501L377.034 609.968ZM354.93 631.814C354.93 632.585 354.673 633.356 353.902 633.87L347.734 638.24C346.449 639.268 345.677 638.497 345.677 636.955L346.192 629.244C346.192 628.216 347.22 627.445 348.248 627.702L349.276 627.959C349.79 627.959 350.304 627.959 350.818 627.702L353.388 626.674C354.673 626.16 355.187 626.674 355.187 628.216L354.93 631.814Z" fill="black"/>
<path d="M441.288 459.612C435.377 459.612 430.494 464.496 430.494 470.407C430.494 476.319 435.377 481.202 441.288 481.202C447.2 481.202 452.34 476.576 452.34 470.407C452.34 464.239 447.457 459.612 441.288 459.612Z" fill="black"/>
<path d="M237.216 423.887C237.216 430.055 242.099 434.682 248.011 434.682C253.922 434.682 259.062 430.055 259.062 423.887C259.062 417.718 254.179 413.092 248.011 413.092C241.842 413.092 237.216 417.975 237.216 423.887Z" fill="black"/>
<path d="M437.69 509.731C431.778 509.731 426.895 514.614 426.895 520.526C426.895 526.437 431.778 531.32 437.69 531.32C443.601 531.32 448.742 526.694 448.742 520.526C448.742 514.357 443.858 509.731 437.69 509.731Z" fill="black"/>
<path d="M309.952 393.045C309.952 387.133 305.069 382.25 298.9 382.25C292.732 382.25 288.105 387.133 288.105 393.045C288.105 398.956 292.989 403.839 298.9 403.839C304.812 403.839 309.952 399.213 309.952 393.045Z" fill="black"/>
<path d="M433.321 602C427.409 602 422.526 606.884 422.526 612.795C422.526 618.706 427.409 623.59 433.321 623.59C439.232 623.59 444.373 618.963 444.373 612.795C444.373 606.626 439.489 602 433.321 602Z" fill="black"/>
<path d="M336.939 382.25L330.513 383.535C329.485 383.792 328.714 384.049 328.714 385.334V386.619C328.714 387.647 329.228 388.418 329.999 388.932L343.107 395.615C343.878 396.129 344.906 396.129 345.677 395.615L348.247 394.33C349.019 393.816 349.533 393.045 349.533 392.017V389.704C349.533 388.675 350.304 388.161 351.075 389.189L358.014 396.9C358.528 397.671 359.299 397.928 360.07 398.185L372.664 400.755L374.72 401.012C375.748 401.012 376.519 400.498 376.776 399.47L377.805 396.643C378.062 395.615 378.833 395.872 379.604 396.129L386.8 399.984C387.571 400.498 388.599 400.755 389.37 400.241L402.221 394.073C402.992 393.559 403.506 393.302 404.02 392.788L412.245 385.077C413.273 384.049 413.016 383.021 411.731 382.507L395.539 378.138L369.837 373.254C369.323 373.254 368.809 372.997 368.295 372.74L362.897 370.684C362.383 370.427 361.869 369.913 361.612 369.399L360.327 363.488C360.07 362.46 359.556 361.946 359.042 361.432L357.243 359.889C356.472 359.118 355.701 359.375 354.93 360.146L352.36 363.488C351.846 364.002 351.075 364.259 350.561 363.745L343.621 357.576C343.107 357.062 342.85 357.062 342.593 356.548L329.485 340.099C328.971 339.585 328.457 338.814 327.686 338.557L312.008 332.131C310.98 331.617 310.209 332.388 309.952 333.417L308.667 339.842C308.495 340.527 308.495 341.213 308.667 341.898L311.751 354.235C312.008 355.006 312.522 355.52 313.293 356.034L318.69 358.861C319.461 359.375 319.461 359.632 319.204 360.403L318.947 361.175C318.433 362.203 318.433 362.717 318.947 363.745L327.686 376.082C328.2 376.596 328.714 377.367 329.485 377.624L337.196 380.708C338.224 381.222 337.967 381.993 336.939 382.25Z" fill="black"/>
<path d="M407.361 444.963C413.53 444.963 418.413 440.336 418.413 434.168C418.413 427.999 413.53 423.373 407.361 423.373C401.193 423.373 396.566 428.256 396.566 434.168C396.566 440.079 401.45 444.963 407.361 444.963Z" fill="black"/>
<path d="M286.563 463.468C292.732 463.468 297.615 458.841 297.615 452.673C297.615 446.504 292.732 441.878 286.563 441.878C280.395 441.878 275.769 446.761 275.769 452.673C275.769 458.584 280.652 463.468 286.563 463.468Z" fill="black"/>
<path d="M440.774 411.55C446.942 411.55 451.826 406.924 451.826 400.755C451.826 394.587 446.942 389.96 440.774 389.96C434.606 389.96 429.979 394.844 429.979 400.755C429.979 406.667 434.863 411.55 440.774 411.55Z" fill="black"/>
<path d="M481.593 554.709C475.682 554.709 470.798 559.592 470.798 565.504C470.798 571.415 475.682 576.299 481.593 576.299C487.504 576.299 492.645 571.672 492.645 565.504C492.645 559.335 487.761 554.709 481.593 554.709Z" fill="black"/>
<path d="M513.977 596.346C511.921 596.346 510.893 596.86 509.608 598.916C509.094 599.43 508.837 599.43 508.58 598.659C508.066 596.86 506.524 596.346 504.725 596.346C502.926 596.346 501.127 596.86 500.356 598.659C500.099 599.43 499.841 599.43 499.584 598.659C498.299 596.86 497.271 596.346 495.215 596.346C493.416 596.346 490.075 598.145 490.075 602.771C490.075 609.968 493.673 614.851 500.613 616.393C501.384 616.65 501.641 616.907 501.898 617.678C502.412 620.763 502.155 623.59 501.641 626.674C501.384 627.959 500.613 627.702 500.098 626.674L498.042 621.02C496.5 617.421 493.93 616.393 491.874 617.678C490.075 619.221 489.561 624.104 492.388 626.931L499.841 634.385C500.356 634.899 500.613 635.413 500.613 636.184C500.613 636.698 500.613 637.212 500.87 637.983C500.87 639.011 501.898 639.525 502.926 639.268L503.954 639.011C504.982 638.754 505.496 638.24 505.496 636.955C504.982 631.043 508.066 625.389 506.781 618.192C506.524 617.421 507.038 616.907 507.809 616.65C515.006 615.622 519.118 610.225 519.118 602.771C519.118 598.659 516.291 596.346 513.977 596.346Z" fill="black"/>
<path d="M480.308 504.076C486.477 504.076 491.36 499.45 491.36 493.282C491.36 487.113 486.477 482.487 480.308 482.487C474.14 482.487 469.513 487.37 469.513 493.282C469.513 499.193 474.397 504.076 480.308 504.076Z" fill="black"/>
<path d="M549.96 596.346C547.904 596.346 546.876 596.86 545.591 598.916C545.077 599.43 544.82 599.43 544.563 598.659C544.048 596.86 542.506 596.346 540.707 596.346C538.908 596.346 537.109 596.86 536.338 598.659C536.081 599.43 535.824 599.43 535.567 598.659C534.282 596.86 533.254 596.346 531.198 596.346C529.398 596.346 526.057 598.145 526.057 602.771C526.057 609.968 529.655 614.851 536.595 616.393C537.366 616.65 537.623 616.907 537.88 617.678C538.394 620.763 538.137 623.59 537.623 626.674C537.366 627.959 536.595 627.702 536.081 626.674L534.025 621.02C532.483 617.421 529.912 616.393 527.856 617.678C526.057 619.221 525.543 624.104 528.37 626.931L535.824 634.385C536.338 634.899 536.595 635.413 536.595 636.184C536.595 636.698 536.595 637.212 536.852 637.983C536.852 639.011 537.88 639.525 538.908 639.268L539.936 639.011C540.964 638.754 541.478 638.24 541.478 636.955C540.964 631.043 544.048 625.389 542.763 618.192C542.506 617.421 543.02 616.907 543.791 616.65C550.988 615.622 555.1 610.225 555.1 602.771C555.1 598.659 552.273 596.346 549.96 596.346Z" fill="black"/>
<path d="M583.886 509.474C583.372 508.703 583.629 507.932 584.657 507.932C611.901 501.249 624.238 483.772 624.238 457.556C624.238 428.256 607.275 406.153 557.156 406.153H502.154C501.126 406.153 500.355 406.667 500.355 407.952V584.266C500.355 585.551 501.126 586.065 502.154 586.065H529.398C530.426 586.065 531.197 585.551 531.197 584.266V511.53C531.197 510.759 531.712 510.245 532.483 510.245H548.418C548.932 510.245 549.703 510.502 549.96 511.016L597.765 584.78C598.279 585.808 599.05 586.065 599.821 586.065H631.949C633.234 586.065 633.748 585.037 632.977 584.009L583.886 509.474ZM558.698 482.487H531.711C539.422 478.889 539.936 478.889 540.45 478.889H546.362C546.876 478.889 547.133 478.889 547.904 479.146L558.955 481.202C559.726 481.459 559.983 481.716 559.983 481.973C559.983 482.23 559.469 482.487 558.698 482.487ZM573.091 481.459H566.666C566.152 481.459 565.381 481.202 564.867 480.688C564.353 480.174 564.61 479.66 565.381 479.146L571.292 475.804C572.063 475.547 572.577 475.033 572.834 474.262L578.232 463.725C578.489 462.954 579.003 462.439 579.003 461.668L580.031 454.215C580.031 453.701 580.802 453.187 581.316 452.93L584.143 451.645C585.428 451.131 585.685 450.103 584.4 449.075L580.802 446.247C580.288 445.733 579.517 445.476 578.746 445.219L577.204 444.962C576.433 444.705 575.919 444.705 575.148 444.962L571.549 445.99C570.778 446.247 570.007 446.761 569.493 447.275L566.152 451.902C565.895 452.416 565.638 452.416 565.124 452.93L552.016 462.954L541.992 472.463C541.735 472.72 541.221 473.234 540.707 473.491L532.74 478.118C531.969 478.632 531.197 478.375 531.197 477.347V434.425C531.197 433.653 531.712 433.139 532.483 433.139H560.241C586.713 433.139 595.195 442.135 595.195 457.813C595.195 470.664 590.055 478.889 573.862 481.459C573.348 481.716 573.091 481.716 573.091 481.459Z" fill="black"/>
<path d="M621.925 596.346C619.869 596.346 618.841 596.86 617.556 598.916C617.042 599.43 616.785 599.43 616.528 598.659C616.014 596.86 614.472 596.346 612.673 596.346C610.873 596.346 609.074 596.86 608.303 598.659C608.046 599.43 607.789 599.43 607.532 598.659C606.247 596.86 605.219 596.346 603.163 596.346C601.364 596.346 598.022 598.145 598.022 602.771C598.022 609.968 601.621 614.851 608.56 616.393C609.331 616.65 609.588 616.907 609.845 617.678C610.359 620.763 610.102 623.59 609.588 626.674C609.331 627.959 608.56 627.702 608.046 626.674L605.99 621.02C604.448 617.421 601.878 616.393 599.822 617.678C598.023 619.221 597.508 624.104 600.336 626.931L607.789 634.385C608.303 634.899 608.56 635.413 608.56 636.184C608.56 636.698 608.56 637.212 608.817 637.983C608.817 639.011 609.845 639.525 610.873 639.268L611.901 639.011C612.93 638.754 613.444 638.24 613.444 636.955C612.93 631.043 616.014 625.389 614.729 618.192C614.472 617.421 614.986 616.907 615.757 616.65C622.953 615.622 627.065 610.225 627.065 602.771C627.065 598.659 624.238 596.346 621.925 596.346Z" fill="black"/>
<path d="M636.318 403.582C630.407 403.582 625.523 408.466 625.523 414.377C625.523 420.289 630.407 425.172 636.318 425.172C642.23 425.172 647.37 420.546 647.37 414.377C647.37 408.209 642.487 403.582 636.318 403.582Z" fill="black"/>
<path d="M585.942 596.346C583.886 596.346 582.858 596.86 581.573 598.916C581.059 599.43 580.802 599.43 580.545 598.659C580.031 596.86 578.489 596.346 576.69 596.346C574.891 596.346 573.092 596.86 572.32 598.659C572.063 599.43 571.806 599.43 571.549 598.659C570.264 596.86 569.236 596.346 567.18 596.346C565.381 596.346 562.04 598.145 562.04 602.771C562.04 609.968 565.638 614.851 572.578 616.393C573.349 616.65 573.606 616.907 573.863 617.678C574.377 620.763 574.12 623.59 573.606 626.674C573.349 627.959 572.578 627.702 572.064 626.674L570.007 621.02C568.465 617.421 565.895 616.393 563.839 617.678C562.04 619.221 561.526 624.104 564.353 626.931L571.806 634.385C572.32 634.899 572.578 635.413 572.578 636.184C572.578 636.698 572.578 637.212 572.835 637.983C572.835 639.011 573.863 639.525 574.891 639.268L575.919 639.011C576.947 638.754 577.461 638.24 577.461 636.955C576.947 631.043 580.031 625.389 578.746 618.192C578.489 617.421 579.003 616.907 579.774 616.65C586.971 615.622 591.083 610.225 591.083 602.771C591.083 598.659 588.256 596.346 585.942 596.346Z" fill="black"/>
<path d="M538.394 377.11L554.843 381.993C556.385 382.507 557.413 383.535 557.927 385.077L561.268 396.386C561.782 398.442 562.81 398.442 563.582 396.386L566.666 385.077C567.18 383.535 567.951 382.507 569.75 381.993L585.942 377.11C587.998 376.596 587.998 375.311 585.942 374.539L569.75 369.656C568.208 369.399 567.18 368.114 566.666 366.829L563.582 355.263C562.81 353.464 561.782 353.464 561.268 355.263L557.927 366.829C557.413 368.371 556.385 369.399 554.843 369.656L538.394 374.539C536.595 375.311 536.595 376.596 538.394 377.11Z" fill="black"/>
<path d="M625.523 507.418C619.612 507.418 614.729 512.301 614.729 518.212C614.729 524.124 619.612 529.007 625.523 529.007C631.435 529.007 636.575 524.381 636.575 518.212C636.575 512.044 631.692 507.418 625.523 507.418Z" fill="black"/>
<path d="M502.155 385.077L505.496 396.386C506.01 398.442 507.038 398.442 507.809 396.386L510.893 385.077C511.407 383.535 512.178 382.507 513.977 381.993L530.17 377.11C532.226 376.596 532.226 375.311 530.17 374.539L513.977 369.656C512.435 369.399 511.407 368.114 510.893 366.829L507.809 355.263C507.038 353.464 506.01 353.464 505.496 355.263L502.155 366.829C501.641 368.371 500.613 369.399 499.07 369.656L482.621 374.539C480.822 375.311 480.822 376.596 482.621 377.11L499.07 381.993C500.613 382.507 501.641 383.535 502.155 385.077Z" fill="black"/>
<path d="M469.513 423.116C469.513 429.284 474.397 433.91 480.308 433.91C486.22 433.91 491.36 429.284 491.36 423.116C491.36 416.947 486.477 412.321 480.308 412.321C474.14 412.321 469.513 417.204 469.513 423.116Z" fill="black"/>
<path d="M576.947 578.355C576.947 572.443 572.063 567.56 565.895 567.56C559.726 567.56 555.1 572.443 555.1 578.355C555.1 584.266 559.983 589.149 565.895 589.149C571.806 589.149 576.947 584.523 576.947 578.355Z" fill="black"/>
<path d="M553.044 557.022C559.213 557.022 564.096 552.396 564.096 546.227C564.096 540.059 559.213 535.433 553.044 535.433C546.876 535.433 542.249 540.316 542.249 546.227C542.249 552.139 547.133 557.022 553.044 557.022Z" fill="black"/>
<path d="M610.616 381.993C612.158 382.507 613.186 383.535 613.7 385.077L617.042 396.386C617.556 398.442 618.584 398.442 619.355 396.386L622.439 385.077C622.953 383.535 623.724 382.507 625.523 381.993L641.715 377.11C643.772 376.596 643.772 375.311 641.715 374.539L625.523 369.656C623.981 369.399 622.953 368.114 622.439 366.829L619.355 355.263C618.584 353.464 617.556 353.464 617.042 355.263L613.7 366.829C613.186 368.371 612.158 369.399 610.616 369.656L594.167 374.539C592.368 375.311 592.368 376.596 594.167 377.11L610.616 381.993Z" fill="black"/>
<path d="M858.171 400.755C858.171 406.924 863.054 411.55 868.966 411.55C874.877 411.55 880.018 406.924 880.018 400.755C880.018 394.587 875.134 389.96 868.966 389.96C862.797 389.96 858.171 394.844 858.171 400.755Z" fill="black"/>
<path d="M863.312 584.009L786.206 407.438C785.949 406.667 785.178 406.153 784.15 406.153H765.131C764.103 406.153 763.332 406.667 763.075 407.438L687.768 584.009C687.254 585.294 688.025 586.065 689.31 586.065H717.839C718.867 586.065 719.639 585.551 719.896 584.78L735.831 546.484C736.088 545.97 736.859 545.456 737.373 545.456H812.679C813.193 545.456 813.964 545.97 814.221 546.484L830.67 584.78C830.927 585.551 831.698 586.065 832.726 586.065H862.027C863.312 586.065 863.826 585.294 863.312 584.009ZM799.828 517.184H749.71C748.939 517.184 748.425 516.413 748.682 515.642L773.612 456.785C774.126 455.757 774.64 455.757 775.154 456.785L800.599 515.642C800.856 516.413 800.599 517.184 799.828 517.184Z" fill="black"/>
<path d="M805.226 609.968C804.712 609.197 804.455 608.426 804.455 607.655L803.684 597.631C803.684 597.117 803.684 596.603 803.17 596.089L796.487 589.406C796.23 589.149 795.973 588.892 795.459 588.378L782.094 579.126L780.295 577.583L776.44 572.443C776.183 571.929 775.412 571.415 774.898 571.415L766.416 570.387C765.902 570.387 765.131 570.387 764.617 570.901L760.505 574.756C759.991 575.27 758.963 575.784 758.192 575.527L751.766 574.499C750.738 574.242 750.224 575.27 750.995 576.041L754.593 580.154C755.107 580.925 755.364 581.439 755.107 582.467L751.766 590.948C751.509 591.719 751.509 591.976 751.509 592.49L751.766 603.285C751.766 603.799 752.023 604.313 752.28 604.827L756.649 612.795C756.906 613.309 757.163 613.823 757.42 614.08L763.846 619.991L770.014 624.361C770.785 624.875 771.299 625.903 771.299 626.674L770.271 640.553C770.271 641.324 770.014 641.838 769.243 642.609L766.93 644.922C766.159 645.436 766.159 645.95 767.187 646.464L767.958 646.721C768.472 646.978 768.729 647.235 769.5 646.721L788.52 635.412C789.034 635.155 789.291 634.641 789.034 633.87L788.52 632.842C788.263 632.328 787.749 631.814 787.749 631.814H787.492C785.949 632.071 785.435 631.3 785.949 630.015L786.721 627.188C786.978 626.16 787.749 625.903 788.52 625.389L799.314 620.248C800.085 619.734 800.857 619.991 801.628 620.762L819.619 635.155C820.133 635.669 820.904 635.67 821.418 634.898L824.759 631.3C825.273 630.529 825.273 630.015 824.759 629.501L805.226 609.968ZM783.122 631.814C783.122 632.585 782.865 633.356 782.094 633.87L775.926 638.24C774.641 639.268 773.87 638.497 773.87 636.955L774.384 629.244C774.384 628.216 775.412 627.445 776.44 627.702L777.468 627.959C777.982 627.959 778.496 627.959 779.01 627.702L781.58 626.674C782.865 626.16 783.379 626.674 783.379 628.216L783.122 631.814Z" fill="black"/>
<path d="M688.539 374.796C694.708 374.796 699.591 370.17 699.591 364.002C699.591 357.833 694.708 353.207 688.539 353.207C682.371 353.207 677.745 358.09 677.745 364.002C677.745 369.913 682.628 374.796 688.539 374.796Z" fill="black"/>
<path d="M665.665 546.227C659.753 546.227 654.87 551.111 654.87 557.022C654.87 562.933 659.753 567.817 665.665 567.817C671.576 567.817 676.716 563.19 676.716 557.022C676.716 550.854 671.833 546.227 665.665 546.227Z" fill="black"/>
<path d="M839.923 382.507L823.731 378.138L798.029 373.254C797.515 373.254 797.001 372.997 796.487 372.74L791.09 370.684C790.576 370.427 790.062 369.913 789.805 369.399L788.519 363.488C788.262 362.46 787.748 361.946 787.234 361.432L785.435 359.889C784.664 359.118 783.893 359.375 783.122 360.146L780.552 363.488C780.038 364.002 779.267 364.259 778.753 363.745L771.813 357.576C771.299 357.062 771.042 357.062 770.785 356.548L757.677 340.099C757.163 339.585 756.649 338.814 755.878 338.557L740.2 332.131C739.172 331.617 738.401 332.388 738.144 333.417L736.859 339.842C736.688 340.527 736.688 341.213 736.859 341.898L739.943 354.235C740.2 355.006 740.714 355.52 741.485 356.034L746.883 358.861C747.654 359.375 747.654 359.632 747.397 360.403L747.14 361.175C746.626 362.203 746.626 362.717 747.14 363.745L755.878 376.082C756.392 376.596 756.906 377.367 757.677 377.624L765.388 380.708C766.416 381.222 766.159 381.993 765.131 382.25L758.705 383.535C757.677 383.792 756.906 384.049 756.906 385.334V386.619C756.906 387.647 757.42 388.418 758.191 388.932L771.299 395.615C772.07 396.129 773.098 396.129 773.869 395.615L776.44 394.33C777.211 393.816 777.725 393.045 777.725 392.017V389.704C777.725 388.675 778.496 388.161 779.267 389.189L786.206 396.9C786.72 397.671 787.491 397.928 788.262 398.185L800.856 400.755L802.912 401.012C803.941 401.012 804.712 400.498 804.969 399.47L805.997 396.643C806.254 395.615 807.025 395.872 807.796 396.129L814.992 399.984C815.763 400.498 816.791 400.755 817.562 400.241L830.413 394.073C831.184 393.559 831.698 393.302 832.213 392.788L840.437 385.077C841.465 384.049 841.208 383.021 839.923 382.507Z" fill="black"/>
<path d="M690.081 496.88C690.081 490.969 685.198 486.085 679.03 486.085C672.861 486.085 668.235 490.969 668.235 496.88C668.235 502.791 673.118 507.675 679.03 507.675C684.941 507.675 690.081 503.048 690.081 496.88Z" fill="black"/>
<path d="M691.88 598.659C685.969 598.659 681.086 603.542 681.086 609.454C681.086 615.365 685.969 620.249 691.88 620.249C697.792 620.249 702.932 615.622 702.932 609.454C702.932 603.285 698.049 598.659 691.88 598.659Z" fill="black"/>
<path d="M835.554 423.373C829.642 423.373 824.759 428.256 824.759 434.168C824.759 440.079 829.642 444.962 835.554 444.962C841.465 444.962 846.605 440.336 846.605 434.168C846.605 427.999 841.722 423.373 835.554 423.373Z" fill="black"/>
<path d="M727.092 382.25C721.18 382.25 716.297 387.133 716.297 393.045C716.297 398.956 721.18 403.839 727.092 403.839C733.003 403.839 738.144 399.213 738.144 393.045C738.144 386.876 733.26 382.25 727.092 382.25Z" fill="black"/>
<path d="M865.882 509.731C859.97 509.731 855.087 514.614 855.087 520.526C855.087 526.437 859.97 531.32 865.882 531.32C871.793 531.32 876.933 526.694 876.933 520.526C876.933 514.357 872.05 509.731 865.882 509.731Z" fill="black"/>
<path d="M676.202 434.682C682.37 434.682 687.254 430.055 687.254 423.887C687.254 417.718 682.37 413.092 676.202 413.092C670.034 413.092 665.407 417.975 665.407 423.887C665.407 429.798 670.291 434.682 676.202 434.682Z" fill="black"/>
<path d="M869.48 459.612C863.569 459.612 858.686 464.496 858.686 470.407C858.686 476.319 863.569 481.202 869.48 481.202C875.392 481.202 880.532 476.576 880.532 470.407C880.532 464.239 875.649 459.612 869.48 459.612Z" fill="black"/>
<path d="M703.96 452.673C703.96 458.841 708.844 463.468 714.755 463.468C720.666 463.468 725.807 458.841 725.807 452.673C725.807 446.504 720.923 441.878 714.755 441.878C708.587 441.878 703.96 446.761 703.96 452.673Z" fill="black"/>
<path d="M861.513 602C855.601 602 850.718 606.884 850.718 612.795C850.718 618.706 855.601 623.59 861.513 623.59C867.424 623.59 872.564 618.963 872.564 612.795C872.564 606.626 867.681 602 861.513 602Z" fill="black"/>
</svg>
