<svg width="302" height="200" viewBox="0 0 302 200" fill="none" xmlns="http://www.w3.org/2000/svg">
<path d="M99.6751 184.737L63.4281 166.279C60.0111 164.905 58.6376 162.175 58.6376 158.071V156.698C58.6376 152.594 60.6978 149.864 64.7848 149.177L67.5151 148.49C77.0793 146.43 78.4528 139.596 68.8886 135.492L61.3678 132.762C58.6376 131.388 56.5773 130.032 54.5338 127.285L30.5981 93.0979C28.5546 90.3677 28.5546 86.2639 29.9113 83.5337C31.2681 80.8034 29.2246 78.0564 23.0773 74.6394L14.8698 70.5357C11.4528 68.4754 9.39256 67.1187 8.72256 63.7017L0.515063 30.2016C-0.171687 27.4714 -0.171687 24.7244 0.515063 21.9942L3.24531 5.57915C3.93206 0.78865 7.34906 -1.25485 11.4528 0.788655L53.8471 18.5604C56.5773 19.9171 58.6376 21.9774 60.6811 24.0376L95.5546 68.4754C98.2848 72.5791 101.032 73.9527 104.449 77.3697L116.76 87.6207C122.237 92.4111 127.011 91.7244 131.115 86.2471L133.175 83.5169C135.905 79.4132 139.322 78.7264 142.739 82.1434L146.156 84.8736C148.887 87.6039 149.573 90.3342 150.26 93.0812L152.99 104.019C154.364 109.496 157.094 113.583 161.885 114.957L175.569 119.06L252.837 134.789L296.588 146.413C301.379 147.787 303.422 152.56 299.318 155.977L278.13 176.496C276.086 178.54 273.339 179.913 270.609 181.287L235.049 197.702C231.632 199.075 228.215 198.388 225.484 197.015L212.486 189.494C206.339 186.077 200.862 188.137 198.818 194.285V194.971C197.445 198.388 194.028 199.762 190.611 199.762H189.924C187.194 199.762 184.447 199.762 181.717 199.075L150.947 192.241C148.217 191.554 144.8 190.868 142.739 188.137L131.115 175.139C124.968 167.619 118.804 166.932 118.804 173.079C118.804 177.183 116.76 179.226 114.013 181.287L109.223 184.704C106.492 186.764 103.075 186.077 99.6583 184.704L99.6751 184.737Z" fill="black"/>
</svg>
