<svg width="302" height="94" viewBox="0 0 302 94" fill="none" xmlns="http://www.w3.org/2000/svg">
<path d="M143.631 72.9588L148.271 83.5113C149.544 86.4593 151.219 88.1511 154.184 89.4241L163.044 92.8076C165.574 94.0806 168.12 94.0806 171.068 93.6451L182.475 91.5346C185.004 91.1158 187.114 90.2616 189.66 89.0053L192.189 87.7323C195.573 86.0406 196.829 84.7676 197.265 83.0926C197.684 80.9821 197.265 78.8716 196.427 76.3423L195.59 74.2318C194.752 70.8483 193.061 68.7378 190.096 67.4816L180.8 63.2606C179.108 62.4231 177.852 61.1501 177.416 59.8771C176.997 58.1853 177.835 56.9291 179.945 55.6561H180.364L205.271 43.8306L230.597 34.5343C232.289 33.6968 233.981 33.6968 235.673 33.2613L252.975 29.8778C254.667 29.4591 256.777 29.8778 258.469 30.7153L268.184 35.3551C271.132 36.6281 273.678 36.6281 276.626 35.3551L285.487 32.4071C287.179 31.5696 288.87 31.5696 290.546 31.5696H291.383C293.912 31.5696 296.458 31.5696 298.569 31.1508C300.26 30.7321 301.517 28.2028 301.517 24.8193V23.1276C301.517 19.7441 300.244 17.2148 297.296 15.5231L282.522 8.33731C279.993 7.06431 277.883 6.64556 275.337 6.22681L240.279 0.314062C237.75 -0.104687 235.22 -0.104687 232.674 0.314062L200.581 3.69756C198.052 4.11631 195.523 4.53506 192.977 5.38931L144.837 20.5816C142.727 21.4191 141.471 21.4191 139.779 21.4191H127.116C124.587 21.4191 122.041 21.4191 119.511 22.2566L109.377 24.7858C107.686 25.2046 105.994 25.6233 104.302 25.6233L79.395 26.0421C76.8658 26.0421 74.3198 26.0421 71.7905 26.8796L52.796 31.9381C50.2668 32.7756 47.7208 33.6298 45.6103 35.3216L24.924 50.5138L3.80225 67.4146C1.273 69.5251 0 70.7813 0 71.6356C0 72.4898 1.69175 73.7461 4.63975 75.0191L14.3548 79.6588C17.7383 81.3506 19.8488 80.9318 22.378 79.6588C24.0697 78.8213 26.1803 77.9671 27.872 77.9671L42.2267 77.1296C45.1748 76.7108 47.7208 75.8566 49.8313 73.7461L54.0523 69.9438C55.744 68.2521 57.4358 67.8333 59.1275 67.4146L82.7785 63.1936L112.761 58.5538C114.453 58.1351 116.145 58.5538 117.819 58.5538L130.064 59.8268C132.174 60.2456 133.866 60.6643 135.122 62.3561L140.616 68.2688C141.889 69.9606 142.727 70.7981 143.564 72.9086L143.631 72.9588Z" fill="black"/>
</svg>
